<?xml version="1.0" encoding="utf-8" standalone="no"?>
<!DOCTYPE svg PUBLIC "-//W3C//DTD SVG 1.1//EN"
  "http://www.w3.org/Graphics/SVG/1.1/DTD/svg11.dtd">
<svg xmlns:xlink="http://www.w3.org/1999/xlink" width="926.357937pt" height="402.52pt" viewBox="0 0 926.357937 402.52" xmlns="http://www.w3.org/2000/svg" version="1.1">
 <metadata>
  <rdf:RDF xmlns:dc="http://purl.org/dc/elements/1.1/" xmlns:cc="http://creativecommons.org/ns#" xmlns:rdf="http://www.w3.org/1999/02/22-rdf-syntax-ns#">
   <cc:Work>
    <dc:type rdf:resource="http://purl.org/dc/dcmitype/StillImage"/>
    <dc:date>2026-08-26T19:18:18.385707</dc:date>
    <dc:format>image/svg+xml</dc:format>
    <dc:creator>
     <cc:Agent>
      <dc:title>Matplotlib v3.10.9, https://matplotlib.org/</dc:title>
     </cc:Agent>
    </dc:creator>
   </cc:Work>
  </rdf:RDF>
 </metadata>
 <defs>
  <style type="text/css">*{stroke-linejoin: round; stroke-linecap: butt}</style>
 </defs>
 <g id="figure_1">
  <g id="patch_1">
   <path d="M 0 402.52 
L 926.357937 402.52 
L 926.357937 0 
L 0 0 
z
" style="fill: #ffffff"/>
  </g>
  <g id="axes_1">
   <g id="patch_2">
    <path d="M 41.570938 318.008 
L 452.456937 318.008 
L 452.456937 70.656 
L 41.570938 70.656 
z
" style="fill: #ffffff"/>
   </g>
   <g id="matplotlib.axis_1">
    <g id="xtick_1">
     <g id="line2d_1">
      <defs>
       <path id="m9ac7cf0f4a" d="M 0 0 
L 0 3.5 
" style="stroke: #000000; stroke-width: 0.8"/>
      </defs>
      <g>
       <use xlink:href="#m9ac7cf0f4a" x="41.570938" y="318.008" style="stroke: #000000; stroke-width: 0.8"/>
      </g>
     </g>
     <g id="text_1">
      <!-- 2020 -->
      <g transform="translate(28.845938 332.606437) scale(0.1 -0.1)">
       <defs>
        <path id="DejaVuSans-32" d="M 1228 531 
L 3431 531 
L 3431 0 
L 469 0 
L 469 531 
Q 828 903 1448 1529 
Q 2069 2156 2228 2338 
Q 2531 2678 2651 2914 
Q 2772 3150 2772 3378 
Q 2772 3750 2511 3984 
Q 2250 4219 1831 4219 
Q 1534 4219 1204 4116 
Q 875 4013 500 3803 
L 500 4441 
Q 881 4594 1212 4672 
Q 1544 4750 1819 4750 
Q 2544 4750 2975 4387 
Q 3406 4025 3406 3419 
Q 3406 3131 3298 2873 
Q 3191 2616 2906 2266 
Q 2828 2175 2409 1742 
Q 1991 1309 1228 531 
z
" transform="scale(0.015625)"/>
        <path id="DejaVuSans-30" d="M 2034 4250 
Q 1547 4250 1301 3770 
Q 1056 3291 1056 2328 
Q 1056 1369 1301 889 
Q 1547 409 2034 409 
Q 2525 409 2770 889 
Q 3016 1369 3016 2328 
Q 3016 3291 2770 3770 
Q 2525 4250 2034 4250 
z
M 2034 4750 
Q 2819 4750 3233 4129 
Q 3647 3509 3647 2328 
Q 3647 1150 3233 529 
Q 2819 -91 2034 -91 
Q 1250 -91 836 529 
Q 422 1150 422 2328 
Q 422 3509 836 4129 
Q 1250 4750 2034 4750 
z
" transform="scale(0.015625)"/>
       </defs>
       <use xlink:href="#DejaVuSans-32"/>
       <use xlink:href="#DejaVuSans-30" transform="translate(63.623047 0)"/>
       <use xlink:href="#DejaVuSans-32" transform="translate(127.246094 0)"/>
       <use xlink:href="#DejaVuSans-30" transform="translate(190.869141 0)"/>
      </g>
     </g>
    </g>
    <g id="xtick_2">
     <g id="line2d_2">
      <g>
       <use xlink:href="#m9ac7cf0f4a" x="178.532938" y="318.008" style="stroke: #000000; stroke-width: 0.8"/>
      </g>
     </g>
     <g id="text_2">
      <!-- 2030 -->
      <g transform="translate(165.807938 332.606437) scale(0.1 -0.1)">
       <defs>
        <path id="DejaVuSans-33" d="M 2597 2516 
Q 3050 2419 3304 2112 
Q 3559 1806 3559 1356 
Q 3559 666 3084 287 
Q 2609 -91 1734 -91 
Q 1441 -91 1130 -33 
Q 819 25 488 141 
L 488 750 
Q 750 597 1062 519 
Q 1375 441 1716 441 
Q 2309 441 2620 675 
Q 2931 909 2931 1356 
Q 2931 1769 2642 2001 
Q 2353 2234 1838 2234 
L 1294 2234 
L 1294 2753 
L 1863 2753 
Q 2328 2753 2575 2939 
Q 2822 3125 2822 3475 
Q 2822 3834 2567 4026 
Q 2313 4219 1838 4219 
Q 1578 4219 1281 4162 
Q 984 4106 628 3988 
L 628 4550 
Q 988 4650 1302 4700 
Q 1616 4750 1894 4750 
Q 2613 4750 3031 4423 
Q 3450 4097 3450 3541 
Q 3450 3153 3228 2886 
Q 3006 2619 2597 2516 
z
" transform="scale(0.015625)"/>
       </defs>
       <use xlink:href="#DejaVuSans-32"/>
       <use xlink:href="#DejaVuSans-30" transform="translate(63.623047 0)"/>
       <use xlink:href="#DejaVuSans-33" transform="translate(127.246094 0)"/>
       <use xlink:href="#DejaVuSans-30" transform="translate(190.869141 0)"/>
      </g>
     </g>
    </g>
    <g id="xtick_3">
     <g id="line2d_3">
      <g>
       <use xlink:href="#m9ac7cf0f4a" x="315.494937" y="318.008" style="stroke: #000000; stroke-width: 0.8"/>
      </g>
     </g>
     <g id="text_3">
      <!-- 2040 -->
      <g transform="translate(302.769937 332.606437) scale(0.1 -0.1)">
       <defs>
        <path id="DejaVuSans-34" d="M 2419 4116 
L 825 1625 
L 2419 1625 
L 2419 4116 
z
M 2253 4666 
L 3047 4666 
L 3047 1625 
L 3713 1625 
L 3713 1100 
L 3047 1100 
L 3047 0 
L 2419 0 
L 2419 1100 
L 313 1100 
L 313 1709 
L 2253 4666 
z
" transform="scale(0.015625)"/>
       </defs>
       <use xlink:href="#DejaVuSans-32"/>
       <use xlink:href="#DejaVuSans-30" transform="translate(63.623047 0)"/>
       <use xlink:href="#DejaVuSans-34" transform="translate(127.246094 0)"/>
       <use xlink:href="#DejaVuSans-30" transform="translate(190.869141 0)"/>
      </g>
     </g>
    </g>
    <g id="xtick_4">
     <g id="line2d_4">
      <g>
       <use xlink:href="#m9ac7cf0f4a" x="452.456937" y="318.008" style="stroke: #000000; stroke-width: 0.8"/>
      </g>
     </g>
     <g id="text_4">
      <!-- 2050 -->
      <g transform="translate(439.731937 332.606437) scale(0.1 -0.1)">
       <defs>
        <path id="DejaVuSans-35" d="M 691 4666 
L 3169 4666 
L 3169 4134 
L 1269 4134 
L 1269 2991 
Q 1406 3038 1543 3061 
Q 1681 3084 1819 3084 
Q 2600 3084 3056 2656 
Q 3513 2228 3513 1497 
Q 3513 744 3044 326 
Q 2575 -91 1722 -91 
Q 1428 -91 1123 -41 
Q 819 9 494 109 
L 494 744 
Q 775 591 1075 516 
Q 1375 441 1709 441 
Q 2250 441 2565 725 
Q 2881 1009 2881 1497 
Q 2881 1984 2565 2268 
Q 2250 2553 1709 2553 
Q 1456 2553 1204 2497 
Q 953 2441 691 2322 
L 691 4666 
z
" transform="scale(0.015625)"/>
       </defs>
       <use xlink:href="#DejaVuSans-32"/>
       <use xlink:href="#DejaVuSans-30" transform="translate(63.623047 0)"/>
       <use xlink:href="#DejaVuSans-35" transform="translate(127.246094 0)"/>
       <use xlink:href="#DejaVuSans-30" transform="translate(190.869141 0)"/>
      </g>
     </g>
    </g>
   </g>
   <g id="matplotlib.axis_2">
    <g id="ytick_1">
     <g id="line2d_5">
      <defs>
       <path id="m3951cf9258" d="M 0 0 
L -3.5 0 
" style="stroke: #000000; stroke-width: 0.8"/>
      </defs>
      <g>
       <use xlink:href="#m3951cf9258" x="41.570938" y="318.008" style="stroke: #000000; stroke-width: 0.8"/>
      </g>
     </g>
     <g id="text_5">
      <!-- 0 -->
      <g transform="translate(28.208438 321.807219) scale(0.1 -0.1)">
       <use xlink:href="#DejaVuSans-30"/>
      </g>
     </g>
    </g>
    <g id="ytick_2">
     <g id="line2d_6">
      <g>
       <use xlink:href="#m3951cf9258" x="41.570938" y="277.427603" style="stroke: #000000; stroke-width: 0.8"/>
      </g>
     </g>
     <g id="text_6">
      <!-- 2 -->
      <g transform="translate(28.208438 281.226821) scale(0.1 -0.1)">
       <use xlink:href="#DejaVuSans-32"/>
      </g>
     </g>
    </g>
    <g id="ytick_3">
     <g id="line2d_7">
      <g>
       <use xlink:href="#m3951cf9258" x="41.570938" y="236.847205" style="stroke: #000000; stroke-width: 0.8"/>
      </g>
     </g>
     <g id="text_7">
      <!-- 4 -->
      <g transform="translate(28.208438 240.646424) scale(0.1 -0.1)">
       <use xlink:href="#DejaVuSans-34"/>
      </g>
     </g>
    </g>
    <g id="ytick_4">
     <g id="line2d_8">
      <g>
       <use xlink:href="#m3951cf9258" x="41.570938" y="196.266808" style="stroke: #000000; stroke-width: 0.8"/>
      </g>
     </g>
     <g id="text_8">
      <!-- 6 -->
      <g transform="translate(28.208438 200.066027) scale(0.1 -0.1)">
       <defs>
        <path id="DejaVuSans-36" d="M 2113 2584 
Q 1688 2584 1439 2293 
Q 1191 2003 1191 1497 
Q 1191 994 1439 701 
Q 1688 409 2113 409 
Q 2538 409 2786 701 
Q 3034 994 3034 1497 
Q 3034 2003 2786 2293 
Q 2538 2584 2113 2584 
z
M 3366 4563 
L 3366 3988 
Q 3128 4100 2886 4159 
Q 2644 4219 2406 4219 
Q 1781 4219 1451 3797 
Q 1122 3375 1075 2522 
Q 1259 2794 1537 2939 
Q 1816 3084 2150 3084 
Q 2853 3084 3261 2657 
Q 3669 2231 3669 1497 
Q 3669 778 3244 343 
Q 2819 -91 2113 -91 
Q 1303 -91 875 529 
Q 447 1150 447 2328 
Q 447 3434 972 4092 
Q 1497 4750 2381 4750 
Q 2619 4750 2861 4703 
Q 3103 4656 3366 4563 
z
" transform="scale(0.015625)"/>
       </defs>
       <use xlink:href="#DejaVuSans-36"/>
      </g>
     </g>
    </g>
    <g id="ytick_5">
     <g id="line2d_9">
      <g>
       <use xlink:href="#m3951cf9258" x="41.570938" y="155.68641" style="stroke: #000000; stroke-width: 0.8"/>
      </g>
     </g>
     <g id="text_9">
      <!-- 8 -->
      <g transform="translate(28.208438 159.485629) scale(0.1 -0.1)">
       <defs>
        <path id="DejaVuSans-38" d="M 2034 2216 
Q 1584 2216 1326 1975 
Q 1069 1734 1069 1313 
Q 1069 891 1326 650 
Q 1584 409 2034 409 
Q 2484 409 2743 651 
Q 3003 894 3003 1313 
Q 3003 1734 2745 1975 
Q 2488 2216 2034 2216 
z
M 1403 2484 
Q 997 2584 770 2862 
Q 544 3141 544 3541 
Q 544 4100 942 4425 
Q 1341 4750 2034 4750 
Q 2731 4750 3128 4425 
Q 3525 4100 3525 3541 
Q 3525 3141 3298 2862 
Q 3072 2584 2669 2484 
Q 3125 2378 3379 2068 
Q 3634 1759 3634 1313 
Q 3634 634 3220 271 
Q 2806 -91 2034 -91 
Q 1263 -91 848 271 
Q 434 634 434 1313 
Q 434 1759 690 2068 
Q 947 2378 1403 2484 
z
M 1172 3481 
Q 1172 3119 1398 2916 
Q 1625 2713 2034 2713 
Q 2441 2713 2670 2916 
Q 2900 3119 2900 3481 
Q 2900 3844 2670 4047 
Q 2441 4250 2034 4250 
Q 1625 4250 1398 4047 
Q 1172 3844 1172 3481 
z
" transform="scale(0.015625)"/>
       </defs>
       <use xlink:href="#DejaVuSans-38"/>
      </g>
     </g>
    </g>
    <g id="ytick_6">
     <g id="line2d_10">
      <g>
       <use xlink:href="#m3951cf9258" x="41.570938" y="115.106013" style="stroke: #000000; stroke-width: 0.8"/>
      </g>
     </g>
     <g id="text_10">
      <!-- 10 -->
      <g transform="translate(21.845938 118.905232) scale(0.1 -0.1)">
       <defs>
        <path id="DejaVuSans-31" d="M 794 531 
L 1825 531 
L 1825 4091 
L 703 3866 
L 703 4441 
L 1819 4666 
L 2450 4666 
L 2450 531 
L 3481 531 
L 3481 0 
L 794 0 
L 794 531 
z
" transform="scale(0.015625)"/>
       </defs>
       <use xlink:href="#DejaVuSans-31"/>
       <use xlink:href="#DejaVuSans-30" transform="translate(63.623047 0)"/>
      </g>
     </g>
    </g>
    <g id="ytick_7">
     <g id="line2d_11">
      <g>
       <use xlink:href="#m3951cf9258" x="41.570938" y="74.525616" style="stroke: #000000; stroke-width: 0.8"/>
      </g>
     </g>
     <g id="text_11">
      <!-- 12 -->
      <g transform="translate(21.845938 78.324834) scale(0.1 -0.1)">
       <use xlink:href="#DejaVuSans-31"/>
       <use xlink:href="#DejaVuSans-32" transform="translate(63.623047 0)"/>
      </g>
     </g>
    </g>
    <g id="text_12">
     <!-- Cumulative emissions (Gt CO$_2$) -->
     <g transform="translate(15.558281 279.747) rotate(-90) scale(0.11 -0.11)">
      <defs>
       <path id="DejaVuSans-43" d="M 4122 4306 
L 4122 3641 
Q 3803 3938 3442 4084 
Q 3081 4231 2675 4231 
Q 1875 4231 1450 3742 
Q 1025 3253 1025 2328 
Q 1025 1406 1450 917 
Q 1875 428 2675 428 
Q 3081 428 3442 575 
Q 3803 722 4122 1019 
L 4122 359 
Q 3791 134 3420 21 
Q 3050 -91 2638 -91 
Q 1578 -91 968 557 
Q 359 1206 359 2328 
Q 359 3453 968 4101 
Q 1578 4750 2638 4750 
Q 3056 4750 3426 4639 
Q 3797 4528 4122 4306 
z
" transform="scale(0.015625)"/>
       <path id="DejaVuSans-75" d="M 544 1381 
L 544 3500 
L 1119 3500 
L 1119 1403 
Q 1119 906 1312 657 
Q 1506 409 1894 409 
Q 2359 409 2629 706 
Q 2900 1003 2900 1516 
L 2900 3500 
L 3475 3500 
L 3475 0 
L 2900 0 
L 2900 538 
Q 2691 219 2414 64 
Q 2138 -91 1772 -91 
Q 1169 -91 856 284 
Q 544 659 544 1381 
z
M 1991 3584 
L 1991 3584 
z
" transform="scale(0.015625)"/>
       <path id="DejaVuSans-6d" d="M 3328 2828 
Q 3544 3216 3844 3400 
Q 4144 3584 4550 3584 
Q 5097 3584 5394 3201 
Q 5691 2819 5691 2113 
L 5691 0 
L 5113 0 
L 5113 2094 
Q 5113 2597 4934 2840 
Q 4756 3084 4391 3084 
Q 3944 3084 3684 2787 
Q 3425 2491 3425 1978 
L 3425 0 
L 2847 0 
L 2847 2094 
Q 2847 2600 2669 2842 
Q 2491 3084 2119 3084 
Q 1678 3084 1418 2786 
Q 1159 2488 1159 1978 
L 1159 0 
L 581 0 
L 581 3500 
L 1159 3500 
L 1159 2956 
Q 1356 3278 1631 3431 
Q 1906 3584 2284 3584 
Q 2666 3584 2933 3390 
Q 3200 3197 3328 2828 
z
" transform="scale(0.015625)"/>
       <path id="DejaVuSans-6c" d="M 603 4863 
L 1178 4863 
L 1178 0 
L 603 0 
L 603 4863 
z
" transform="scale(0.015625)"/>
       <path id="DejaVuSans-61" d="M 2194 1759 
Q 1497 1759 1228 1600 
Q 959 1441 959 1056 
Q 959 750 1161 570 
Q 1363 391 1709 391 
Q 2188 391 2477 730 
Q 2766 1069 2766 1631 
L 2766 1759 
L 2194 1759 
z
M 3341 1997 
L 3341 0 
L 2766 0 
L 2766 531 
Q 2569 213 2275 61 
Q 1981 -91 1556 -91 
Q 1019 -91 701 211 
Q 384 513 384 1019 
Q 384 1609 779 1909 
Q 1175 2209 1959 2209 
L 2766 2209 
L 2766 2266 
Q 2766 2663 2505 2880 
Q 2244 3097 1772 3097 
Q 1472 3097 1187 3025 
Q 903 2953 641 2809 
L 641 3341 
Q 956 3463 1253 3523 
Q 1550 3584 1831 3584 
Q 2591 3584 2966 3190 
Q 3341 2797 3341 1997 
z
" transform="scale(0.015625)"/>
       <path id="DejaVuSans-74" d="M 1172 4494 
L 1172 3500 
L 2356 3500 
L 2356 3053 
L 1172 3053 
L 1172 1153 
Q 1172 725 1289 603 
Q 1406 481 1766 481 
L 2356 481 
L 2356 0 
L 1766 0 
Q 1100 0 847 248 
Q 594 497 594 1153 
L 594 3053 
L 172 3053 
L 172 3500 
L 594 3500 
L 594 4494 
L 1172 4494 
z
" transform="scale(0.015625)"/>
       <path id="DejaVuSans-69" d="M 603 3500 
L 1178 3500 
L 1178 0 
L 603 0 
L 603 3500 
z
M 603 4863 
L 1178 4863 
L 1178 4134 
L 603 4134 
L 603 4863 
z
" transform="scale(0.015625)"/>
       <path id="DejaVuSans-76" d="M 191 3500 
L 800 3500 
L 1894 563 
L 2988 3500 
L 3597 3500 
L 2284 0 
L 1503 0 
L 191 3500 
z
" transform="scale(0.015625)"/>
       <path id="DejaVuSans-65" d="M 3597 1894 
L 3597 1613 
L 953 1613 
Q 991 1019 1311 708 
Q 1631 397 2203 397 
Q 2534 397 2845 478 
Q 3156 559 3463 722 
L 3463 178 
Q 3153 47 2828 -22 
Q 2503 -91 2169 -91 
Q 1331 -91 842 396 
Q 353 884 353 1716 
Q 353 2575 817 3079 
Q 1281 3584 2069 3584 
Q 2775 3584 3186 3129 
Q 3597 2675 3597 1894 
z
M 3022 2063 
Q 3016 2534 2758 2815 
Q 2500 3097 2075 3097 
Q 1594 3097 1305 2825 
Q 1016 2553 972 2059 
L 3022 2063 
z
" transform="scale(0.015625)"/>
       <path id="DejaVuSans-20" transform="scale(0.015625)"/>
       <path id="DejaVuSans-73" d="M 2834 3397 
L 2834 2853 
Q 2591 2978 2328 3040 
Q 2066 3103 1784 3103 
Q 1356 3103 1142 2972 
Q 928 2841 928 2578 
Q 928 2378 1081 2264 
Q 1234 2150 1697 2047 
L 1894 2003 
Q 2506 1872 2764 1633 
Q 3022 1394 3022 966 
Q 3022 478 2636 193 
Q 2250 -91 1575 -91 
Q 1294 -91 989 -36 
Q 684 19 347 128 
L 347 722 
Q 666 556 975 473 
Q 1284 391 1588 391 
Q 1994 391 2212 530 
Q 2431 669 2431 922 
Q 2431 1156 2273 1281 
Q 2116 1406 1581 1522 
L 1381 1569 
Q 847 1681 609 1914 
Q 372 2147 372 2553 
Q 372 3047 722 3315 
Q 1072 3584 1716 3584 
Q 2034 3584 2315 3537 
Q 2597 3491 2834 3397 
z
" transform="scale(0.015625)"/>
       <path id="DejaVuSans-6f" d="M 1959 3097 
Q 1497 3097 1228 2736 
Q 959 2375 959 1747 
Q 959 1119 1226 758 
Q 1494 397 1959 397 
Q 2419 397 2687 759 
Q 2956 1122 2956 1747 
Q 2956 2369 2687 2733 
Q 2419 3097 1959 3097 
z
M 1959 3584 
Q 2709 3584 3137 3096 
Q 3566 2609 3566 1747 
Q 3566 888 3137 398 
Q 2709 -91 1959 -91 
Q 1206 -91 779 398 
Q 353 888 353 1747 
Q 353 2609 779 3096 
Q 1206 3584 1959 3584 
z
" transform="scale(0.015625)"/>
       <path id="DejaVuSans-6e" d="M 3513 2113 
L 3513 0 
L 2938 0 
L 2938 2094 
Q 2938 2591 2744 2837 
Q 2550 3084 2163 3084 
Q 1697 3084 1428 2787 
Q 1159 2491 1159 1978 
L 1159 0 
L 581 0 
L 581 3500 
L 1159 3500 
L 1159 2956 
Q 1366 3272 1645 3428 
Q 1925 3584 2291 3584 
Q 2894 3584 3203 3211 
Q 3513 2838 3513 2113 
z
" transform="scale(0.015625)"/>
       <path id="DejaVuSans-28" d="M 1984 4856 
Q 1566 4138 1362 3434 
Q 1159 2731 1159 2009 
Q 1159 1288 1364 580 
Q 1569 -128 1984 -844 
L 1484 -844 
Q 1016 -109 783 600 
Q 550 1309 550 2009 
Q 550 2706 781 3412 
Q 1013 4119 1484 4856 
L 1984 4856 
z
" transform="scale(0.015625)"/>
       <path id="DejaVuSans-47" d="M 3809 666 
L 3809 1919 
L 2778 1919 
L 2778 2438 
L 4434 2438 
L 4434 434 
Q 4069 175 3628 42 
Q 3188 -91 2688 -91 
Q 1594 -91 976 548 
Q 359 1188 359 2328 
Q 359 3472 976 4111 
Q 1594 4750 2688 4750 
Q 3144 4750 3555 4637 
Q 3966 4525 4313 4306 
L 4313 3634 
Q 3963 3931 3569 4081 
Q 3175 4231 2741 4231 
Q 1884 4231 1454 3753 
Q 1025 3275 1025 2328 
Q 1025 1384 1454 906 
Q 1884 428 2741 428 
Q 3075 428 3337 486 
Q 3600 544 3809 666 
z
" transform="scale(0.015625)"/>
       <path id="DejaVuSans-4f" d="M 2522 4238 
Q 1834 4238 1429 3725 
Q 1025 3213 1025 2328 
Q 1025 1447 1429 934 
Q 1834 422 2522 422 
Q 3209 422 3611 934 
Q 4013 1447 4013 2328 
Q 4013 3213 3611 3725 
Q 3209 4238 2522 4238 
z
M 2522 4750 
Q 3503 4750 4090 4092 
Q 4678 3434 4678 2328 
Q 4678 1225 4090 567 
Q 3503 -91 2522 -91 
Q 1538 -91 948 565 
Q 359 1222 359 2328 
Q 359 3434 948 4092 
Q 1538 4750 2522 4750 
z
" transform="scale(0.015625)"/>
       <path id="DejaVuSans-29" d="M 513 4856 
L 1013 4856 
Q 1481 4119 1714 3412 
Q 1947 2706 1947 2009 
Q 1947 1309 1714 600 
Q 1481 -109 1013 -844 
L 513 -844 
Q 928 -128 1133 580 
Q 1338 1288 1338 2009 
Q 1338 2731 1133 3434 
Q 928 4138 513 4856 
z
" transform="scale(0.015625)"/>
      </defs>
      <use xlink:href="#DejaVuSans-43" transform="translate(0 0.015625)"/>
      <use xlink:href="#DejaVuSans-75" transform="translate(69.824219 0.015625)"/>
      <use xlink:href="#DejaVuSans-6d" transform="translate(133.203125 0.015625)"/>
      <use xlink:href="#DejaVuSans-75" transform="translate(230.615234 0.015625)"/>
      <use xlink:href="#DejaVuSans-6c" transform="translate(293.994141 0.015625)"/>
      <use xlink:href="#DejaVuSans-61" transform="translate(321.777344 0.015625)"/>
      <use xlink:href="#DejaVuSans-74" transform="translate(383.056641 0.015625)"/>
      <use xlink:href="#DejaVuSans-69" transform="translate(422.265625 0.015625)"/>
      <use xlink:href="#DejaVuSans-76" transform="translate(450.048828 0.015625)"/>
      <use xlink:href="#DejaVuSans-65" transform="translate(509.228516 0.015625)"/>
      <use xlink:href="#DejaVuSans-20" transform="translate(570.751953 0.015625)"/>
      <use xlink:href="#DejaVuSans-65" transform="translate(602.539062 0.015625)"/>
      <use xlink:href="#DejaVuSans-6d" transform="translate(664.0625 0.015625)"/>
      <use xlink:href="#DejaVuSans-69" transform="translate(761.474609 0.015625)"/>
      <use xlink:href="#DejaVuSans-73" transform="translate(789.257812 0.015625)"/>
      <use xlink:href="#DejaVuSans-73" transform="translate(841.357422 0.015625)"/>
      <use xlink:href="#DejaVuSans-69" transform="translate(893.457031 0.015625)"/>
      <use xlink:href="#DejaVuSans-6f" transform="translate(921.240234 0.015625)"/>
      <use xlink:href="#DejaVuSans-6e" transform="translate(982.421875 0.015625)"/>
      <use xlink:href="#DejaVuSans-73" transform="translate(1045.800781 0.015625)"/>
      <use xlink:href="#DejaVuSans-20" transform="translate(1097.900391 0.015625)"/>
      <use xlink:href="#DejaVuSans-28" transform="translate(1129.6875 0.015625)"/>
      <use xlink:href="#DejaVuSans-47" transform="translate(1168.701172 0.015625)"/>
      <use xlink:href="#DejaVuSans-74" transform="translate(1246.191406 0.015625)"/>
      <use xlink:href="#DejaVuSans-20" transform="translate(1285.400391 0.015625)"/>
      <use xlink:href="#DejaVuSans-43" transform="translate(1317.1875 0.015625)"/>
      <use xlink:href="#DejaVuSans-4f" transform="translate(1387.011719 0.015625)"/>
      <use xlink:href="#DejaVuSans-32" transform="translate(1466.679688 -16.390625) scale(0.7)"/>
      <use xlink:href="#DejaVuSans-29" transform="translate(1513.950195 0.015625)"/>
     </g>
    </g>
   </g>
   <g id="line2d_12">
    <path d="M 41.570938 302.795229 
L 55.267137 286.971618 
L 68.963338 272.189915 
L 82.659537 257.582505 
L 96.355738 243.141168 
L 110.051938 229.467598 
L 123.748137 216.132097 
L 137.444338 203.248582 
L 151.140537 190.474207 
L 164.836738 178.382171 
L 178.532938 166.304299 
L 192.229137 155.997994 
L 205.925338 147.300707 
L 219.621537 140.412262 
L 233.317737 135.333224 
L 247.013937 130.967888 
L 260.710137 126.406914 
L 274.406338 122.116268 
L 288.102537 118.052947 
L 301.798737 114.140762 
L 315.494937 110.363055 
L 329.191137 106.731722 
L 342.887338 103.261427 
L 356.583537 99.94597 
L 370.279737 96.900874 
L 383.975937 94.01151 
L 397.672137 91.267133 
L 411.368338 88.667694 
L 425.064537 86.210096 
L 438.760737 83.892247 
L 452.456937 81.711273 
" clip-path="url(#p18e9f14d25)" style="fill: none; stroke-dasharray: 1.9,3.135; stroke-dashoffset: 0; stroke: #9b2226; stroke-width: 1.9"/>
   </g>
   <g id="line2d_13">
    <path d="M 41.570938 302.816731 
L 55.267137 286.804825 
L 68.963338 271.904162 
L 82.659537 257.106765 
L 96.355738 243.048234 
L 110.051938 229.541472 
L 123.748137 216.367927 
L 137.444338 203.509548 
L 151.140537 190.858298 
L 164.836738 178.828857 
L 178.532938 166.800235 
L 192.229137 156.567223 
L 205.925338 148.037705 
L 219.621537 141.530084 
L 233.317737 136.622067 
L 247.013937 133.596892 
L 260.710137 130.452615 
L 274.406338 127.746893 
L 288.102537 125.422386 
L 301.798737 122.562272 
L 315.494937 119.963727 
L 329.191137 117.390075 
L 342.887338 114.841038 
L 356.583537 112.440419 
L 370.279737 110.180026 
L 383.975937 107.942525 
L 397.672137 105.708674 
L 411.368338 103.482032 
L 425.064537 101.227133 
L 438.760737 98.979586 
L 452.456937 96.734981 
" clip-path="url(#p18e9f14d25)" style="fill: none; stroke-dasharray: 1.9,3.135; stroke-dashoffset: 0; stroke: #b45309; stroke-width: 1.9"/>
   </g>
   <g id="line2d_14">
    <path d="M 41.570938 302.795229 
L 55.267137 286.973372 
L 68.963338 272.22518 
L 82.659537 257.681056 
L 96.355738 243.202922 
L 110.051938 229.483726 
L 123.748137 216.150774 
L 137.444338 203.286742 
L 151.140537 190.556378 
L 164.836738 178.261369 
L 178.532938 166.12404 
L 192.229137 155.771514 
L 205.925338 147.063651 
L 219.621537 140.026942 
L 233.317737 134.967674 
L 247.013937 131.022637 
L 260.710137 126.808622 
L 274.406338 122.941965 
L 288.102537 119.677871 
L 301.798737 116.613437 
L 315.494937 113.705276 
L 329.191137 110.84362 
L 342.887338 108.135335 
L 356.583537 105.576911 
L 370.279737 103.166369 
L 383.975937 100.903046 
L 397.672137 98.906706 
L 411.368338 97.06162 
L 425.064537 95.360334 
L 438.760737 93.802791 
L 452.456937 92.385524 
" clip-path="url(#p18e9f14d25)" style="fill: none; stroke-dasharray: 1.9,3.135; stroke-dashoffset: 0; stroke: #003f88; stroke-width: 1.9"/>
   </g>
   <g id="line2d_15">
    <path d="M 41.570938 302.816731 
L 55.267137 286.804825 
L 68.963338 272.010179 
L 82.659537 257.359208 
L 96.355738 243.221413 
L 110.051938 229.552843 
L 123.748137 216.369173 
L 137.444338 203.376976 
L 151.140537 190.760161 
L 164.836738 178.605902 
L 178.532938 166.421161 
L 192.229137 156.250028 
L 205.925338 148.318273 
L 219.621537 141.844681 
L 233.317737 137.00235 
L 247.013937 133.962576 
L 260.710137 130.952515 
L 274.406338 128.414512 
L 288.102537 126.31233 
L 301.798737 123.622251 
L 315.494937 121.971338 
L 329.191137 120.495431 
L 342.887338 119.2287 
L 356.583537 118.172189 
L 370.279737 117.150773 
L 383.975937 116.308507 
L 397.672137 115.490623 
L 411.368338 114.789669 
L 425.064537 114.092857 
L 438.760737 113.604457 
L 452.456937 113.118394 
" clip-path="url(#p18e9f14d25)" style="fill: none; stroke-dasharray: 1.9,3.135; stroke-dashoffset: 0; stroke: #386641; stroke-width: 1.9"/>
   </g>
   <g id="line2d_16">
    <path d="M 41.570938 302.795229 
L 55.267137 286.973372 
L 68.963338 272.157902 
L 82.659537 257.536098 
L 96.355738 243.043716 
L 110.051938 229.315042 
L 123.748137 216.088742 
L 137.444338 202.943046 
L 151.140537 190.128825 
L 164.836738 177.86243 
L 178.532938 165.635825 
L 192.229137 155.461158 
L 205.925338 147.570864 
L 219.621537 140.82427 
L 233.317737 135.726091 
L 247.013937 131.362604 
L 260.710137 127.869724 
L 274.406338 124.97482 
L 288.102537 121.327959 
L 301.798737 117.831372 
L 315.494937 114.759767 
L 329.191137 111.822586 
L 342.887338 109.044387 
L 356.583537 106.413575 
L 370.279737 103.932252 
L 383.975937 101.595542 
L 397.672137 99.404457 
L 411.368338 97.351198 
L 425.064537 95.435738 
L 438.760737 93.659942 
L 452.456937 92.017669 
" clip-path="url(#p18e9f14d25)" style="fill: none; stroke-dasharray: 7.03,3.04; stroke-dashoffset: 0; stroke: #9b2226; stroke-width: 1.9"/>
   </g>
   <g id="line2d_17">
    <path d="M 41.570938 302.816731 
L 55.267137 286.847739 
L 68.963338 271.975382 
L 82.659537 257.206425 
L 96.355738 243.151194 
L 110.051938 229.609139 
L 123.748137 216.377746 
L 137.444338 203.411387 
L 151.140537 190.887128 
L 164.836738 178.960746 
L 178.532938 166.890363 
L 192.229137 156.820376 
L 205.925338 148.972981 
L 219.621537 142.449371 
L 233.317737 137.59522 
L 247.013937 134.528187 
L 260.710137 131.485594 
L 274.406338 128.765344 
L 288.102537 126.475084 
L 301.798737 123.547871 
L 315.494937 121.82864 
L 329.191137 120.339466 
L 342.887338 119.051724 
L 356.583537 117.888302 
L 370.279737 116.748938 
L 383.975937 115.634501 
L 397.672137 114.523905 
L 411.368338 113.420356 
L 425.064537 112.316946 
L 438.760737 111.217948 
L 452.456937 110.121058 
" clip-path="url(#p18e9f14d25)" style="fill: none; stroke-dasharray: 7.03,3.04; stroke-dashoffset: 0; stroke: #b45309; stroke-width: 1.9"/>
   </g>
   <g id="line2d_18">
    <path d="M 41.570938 302.795229 
L 55.267137 286.971618 
L 68.963338 272.244964 
L 82.659537 257.672193 
L 96.355738 243.24027 
L 110.051938 229.577424 
L 123.748137 216.2874 
L 137.444338 203.098071 
L 151.140537 190.464161 
L 164.836738 178.134096 
L 178.532938 166.095699 
L 192.229137 155.603542 
L 205.925338 146.946742 
L 219.621537 140.292269 
L 233.317737 135.194016 
L 247.013937 131.371702 
L 260.710137 128.258169 
L 274.406338 125.577632 
L 288.102537 123.288872 
L 301.798737 119.94862 
L 315.494937 118.226644 
L 329.191137 116.784531 
L 342.887338 115.486746 
L 356.583537 114.337903 
L 370.279737 113.331436 
L 383.975937 112.473217 
L 397.672137 111.753736 
L 411.368338 111.166279 
L 425.064537 110.716656 
L 438.760737 110.394159 
L 452.456937 110.200357 
" clip-path="url(#p18e9f14d25)" style="fill: none; stroke-dasharray: 7.03,3.04; stroke-dashoffset: 0; stroke: #003f88; stroke-width: 1.9"/>
   </g>
   <g id="line2d_19">
    <path d="M 41.570938 302.816731 
L 55.267137 286.850682 
L 68.963338 271.892923 
L 82.659537 257.101589 
L 96.355738 242.957559 
L 110.051938 229.641112 
L 123.748137 216.561691 
L 137.444338 203.807314 
L 151.140537 191.26218 
L 164.836738 179.025909 
L 178.532938 166.880462 
L 192.229137 156.617708 
L 205.925338 149.259962 
L 219.621537 142.592414 
L 233.317737 137.720777 
L 247.013937 134.666084 
L 260.710137 131.635245 
L 274.406338 129.096362 
L 288.102537 126.97865 
L 301.798737 124.306125 
L 315.494937 122.615886 
L 329.191137 121.138165 
L 342.887338 119.854238 
L 356.583537 118.798289 
L 370.279737 117.771233 
L 383.975937 116.914818 
L 397.672137 116.07531 
L 411.368338 115.376836 
L 425.064537 114.682222 
L 438.760737 114.18822 
L 452.456937 113.696485 
" clip-path="url(#p18e9f14d25)" style="fill: none; stroke-dasharray: 7.03,3.04; stroke-dashoffset: 0; stroke: #386641; stroke-width: 1.9"/>
   </g>
   <g id="line2d_20">
    <path d="M 41.570938 302.795229 
L 55.267137 286.97081 
L 68.963338 272.220173 
L 82.659537 257.673685 
L 96.355738 243.201204 
L 110.051938 229.47972 
L 123.748137 216.287139 
L 137.444338 203.230995 
L 151.140537 190.575847 
L 164.836738 178.301774 
L 178.532938 166.195531 
L 192.229137 156.080324 
L 205.925338 147.791782 
L 219.621537 141.08898 
L 233.317737 135.580685 
L 247.013937 132.223974 
L 260.710137 129.049726 
L 274.406338 126.251166 
L 288.102537 123.868308 
L 301.798737 120.74172 
L 315.494937 118.932857 
L 329.191137 117.399182 
L 342.887338 116.101772 
L 356.583537 114.89202 
L 370.279737 113.693401 
L 383.975937 112.512974 
L 397.672137 111.343571 
L 411.368338 110.185162 
L 425.064537 109.043777 
L 438.760737 107.913386 
L 452.456937 106.793989 
" clip-path="url(#p18e9f14d25)" style="fill: none; stroke: #9b2226; stroke-width: 1.9; stroke-linecap: square"/>
   </g>
   <g id="line2d_21">
    <path d="M 41.570938 302.816731 
L 55.267137 286.875091 
L 68.963338 271.933627 
L 82.659537 257.133653 
L 96.355738 242.835432 
L 110.051938 229.259862 
L 123.748137 216.089502 
L 137.444338 203.337941 
L 151.140537 190.373734 
L 164.836738 178.242765 
L 178.532938 166.035147 
L 192.229137 155.867962 
L 205.925338 147.359832 
L 219.621537 140.716367 
L 233.317737 135.603702 
L 247.013937 132.34131 
L 260.710137 129.141147 
L 274.406338 126.448501 
L 288.102537 124.095481 
L 301.798737 121.241888 
L 315.494937 119.447082 
L 329.191137 117.951817 
L 342.887338 116.69198 
L 356.583537 115.625435 
L 370.279737 114.592819 
L 383.975937 113.629999 
L 397.672137 112.67443 
L 411.368338 111.726111 
L 425.064537 110.791073 
L 438.760737 109.863285 
L 452.456937 108.941003 
" clip-path="url(#p18e9f14d25)" style="fill: none; stroke: #b45309; stroke-width: 1.9; stroke-linecap: square"/>
   </g>
   <g id="line2d_22">
    <path d="M 41.570938 302.795229 
L 55.267137 286.977123 
L 68.963338 272.138854 
L 82.659537 257.471713 
L 96.355738 243.004591 
L 110.051938 229.299115 
L 123.748137 216.151449 
L 137.444338 203.103393 
L 151.140537 190.265461 
L 164.836738 177.97229 
L 178.532938 165.74145 
L 192.229137 155.616263 
L 205.925338 146.875388 
L 219.621537 140.211685 
L 233.317737 134.734034 
L 247.013937 131.349756 
L 260.710137 128.192278 
L 274.406338 125.487889 
L 288.102537 123.077898 
L 301.798737 120.329826 
L 315.494937 118.500617 
L 329.191137 116.974904 
L 342.887338 115.702333 
L 356.583537 114.473887 
L 370.279737 113.266314 
L 383.975937 112.07344 
L 397.672137 110.896054 
L 411.368338 109.739088 
L 425.064537 108.59651 
L 438.760737 107.468321 
L 452.456937 106.354521 
" clip-path="url(#p18e9f14d25)" style="fill: none; stroke: #003f88; stroke-width: 1.9; stroke-linecap: square"/>
   </g>
   <g id="line2d_23">
    <path d="M 41.570938 302.816731 
L 55.267137 286.875091 
L 68.963338 271.951067 
L 82.659537 257.11147 
L 96.355738 242.839113 
L 110.051938 229.342343 
L 123.748137 216.094753 
L 137.444338 203.338376 
L 151.140537 190.461778 
L 164.836738 178.219004 
L 178.532938 166.106902 
L 192.229137 155.656371 
L 205.925338 146.669469 
L 219.621537 139.992208 
L 233.317737 134.951312 
L 247.013937 131.650456 
L 260.710137 128.580869 
L 274.406338 125.913522 
L 288.102537 123.527504 
L 301.798737 120.842369 
L 315.494937 119.048251 
L 329.191137 117.572953 
L 342.887338 116.342865 
L 356.583537 115.276537 
L 370.279737 114.2259 
L 383.975937 113.334892 
L 397.672137 112.462962 
L 411.368338 111.609487 
L 425.064537 110.763682 
L 438.760737 109.925546 
L 452.456937 109.09508 
" clip-path="url(#p18e9f14d25)" style="fill: none; stroke: #386641; stroke-width: 1.9; stroke-linecap: square"/>
   </g>
   <g id="line2d_24">
    <path d="M 41.570938 302.110629 
L 55.267137 286.61399 
L 68.963338 271.518082 
L 82.659537 256.822906 
L 96.355738 242.528461 
L 110.051938 228.634747 
L 123.748137 215.141765 
L 137.444338 202.049514 
L 151.140537 189.357995 
L 164.836738 177.067207 
L 178.532938 165.177151 
L 192.229137 154.995529 
L 205.925338 146.522342 
L 219.621537 139.75759 
L 233.317737 134.701272 
L 247.013937 131.35339 
L 260.710137 128.37073 
L 274.406338 125.753295 
L 288.102537 123.501083 
L 301.798737 121.614094 
L 315.494937 120.092329 
L 329.191137 118.712596 
L 342.887338 117.474894 
L 356.583537 116.379223 
L 370.279737 115.425584 
L 383.975937 114.613976 
L 397.672137 113.891645 
L 411.368338 113.25859 
L 425.064537 112.714813 
L 438.760737 112.260313 
L 452.456937 111.895089 
" clip-path="url(#p18e9f14d25)" style="fill: none; stroke: #000000; stroke-width: 2.6; stroke-linecap: square"/>
   </g>
   <g id="patch_3">
    <path d="M 41.570938 318.008 
L 41.570938 70.656 
" style="fill: none; stroke: #000000; stroke-width: 0.8; stroke-linejoin: miter; stroke-linecap: square"/>
   </g>
   <g id="patch_4">
    <path d="M 41.570938 318.008 
L 452.456937 318.008 
" style="fill: none; stroke: #000000; stroke-width: 0.8; stroke-linejoin: miter; stroke-linecap: square"/>
   </g>
   <g id="text_13">
    <!-- Aluminium smelting -->
    <g transform="translate(179.352687 64.656) scale(0.12 -0.12)">
     <defs>
      <path id="DejaVuSans-Bold-41" d="M 3419 850 
L 1538 850 
L 1241 0 
L 31 0 
L 1759 4666 
L 3194 4666 
L 4922 0 
L 3713 0 
L 3419 850 
z
M 1838 1716 
L 3116 1716 
L 2478 3572 
L 1838 1716 
z
" transform="scale(0.015625)"/>
      <path id="DejaVuSans-Bold-6c" d="M 538 4863 
L 1656 4863 
L 1656 0 
L 538 0 
L 538 4863 
z
" transform="scale(0.015625)"/>
      <path id="DejaVuSans-Bold-75" d="M 500 1363 
L 500 3500 
L 1625 3500 
L 1625 3150 
Q 1625 2866 1622 2436 
Q 1619 2006 1619 1863 
Q 1619 1441 1641 1255 
Q 1663 1069 1716 984 
Q 1784 875 1895 815 
Q 2006 756 2150 756 
Q 2500 756 2700 1025 
Q 2900 1294 2900 1772 
L 2900 3500 
L 4019 3500 
L 4019 0 
L 2900 0 
L 2900 506 
Q 2647 200 2364 54 
Q 2081 -91 1741 -91 
Q 1134 -91 817 281 
Q 500 653 500 1363 
z
" transform="scale(0.015625)"/>
      <path id="DejaVuSans-Bold-6d" d="M 3781 2919 
Q 3994 3244 4286 3414 
Q 4578 3584 4928 3584 
Q 5531 3584 5847 3212 
Q 6163 2841 6163 2131 
L 6163 0 
L 5038 0 
L 5038 1825 
Q 5041 1866 5042 1909 
Q 5044 1953 5044 2034 
Q 5044 2406 4934 2573 
Q 4825 2741 4581 2741 
Q 4263 2741 4089 2478 
Q 3916 2216 3909 1719 
L 3909 0 
L 2784 0 
L 2784 1825 
Q 2784 2406 2684 2573 
Q 2584 2741 2328 2741 
Q 2006 2741 1831 2477 
Q 1656 2213 1656 1722 
L 1656 0 
L 531 0 
L 531 3500 
L 1656 3500 
L 1656 2988 
Q 1863 3284 2130 3434 
Q 2397 3584 2719 3584 
Q 3081 3584 3359 3409 
Q 3638 3234 3781 2919 
z
" transform="scale(0.015625)"/>
      <path id="DejaVuSans-Bold-69" d="M 538 3500 
L 1656 3500 
L 1656 0 
L 538 0 
L 538 3500 
z
M 538 4863 
L 1656 4863 
L 1656 3950 
L 538 3950 
L 538 4863 
z
" transform="scale(0.015625)"/>
      <path id="DejaVuSans-Bold-6e" d="M 4056 2131 
L 4056 0 
L 2931 0 
L 2931 347 
L 2931 1631 
Q 2931 2084 2911 2256 
Q 2891 2428 2841 2509 
Q 2775 2619 2662 2680 
Q 2550 2741 2406 2741 
Q 2056 2741 1856 2470 
Q 1656 2200 1656 1722 
L 1656 0 
L 538 0 
L 538 3500 
L 1656 3500 
L 1656 2988 
Q 1909 3294 2193 3439 
Q 2478 3584 2822 3584 
Q 3428 3584 3742 3212 
Q 4056 2841 4056 2131 
z
" transform="scale(0.015625)"/>
      <path id="DejaVuSans-Bold-20" transform="scale(0.015625)"/>
      <path id="DejaVuSans-Bold-73" d="M 3272 3391 
L 3272 2541 
Q 2913 2691 2578 2766 
Q 2244 2841 1947 2841 
Q 1628 2841 1473 2761 
Q 1319 2681 1319 2516 
Q 1319 2381 1436 2309 
Q 1553 2238 1856 2203 
L 2053 2175 
Q 2913 2066 3209 1816 
Q 3506 1566 3506 1031 
Q 3506 472 3093 190 
Q 2681 -91 1863 -91 
Q 1516 -91 1145 -36 
Q 775 19 384 128 
L 384 978 
Q 719 816 1070 734 
Q 1422 653 1784 653 
Q 2113 653 2278 743 
Q 2444 834 2444 1013 
Q 2444 1163 2330 1236 
Q 2216 1309 1875 1350 
L 1678 1375 
Q 931 1469 631 1722 
Q 331 1975 331 2491 
Q 331 3047 712 3315 
Q 1094 3584 1881 3584 
Q 2191 3584 2531 3537 
Q 2872 3491 3272 3391 
z
" transform="scale(0.015625)"/>
      <path id="DejaVuSans-Bold-65" d="M 4031 1759 
L 4031 1441 
L 1416 1441 
Q 1456 1047 1700 850 
Q 1944 653 2381 653 
Q 2734 653 3104 758 
Q 3475 863 3866 1075 
L 3866 213 
Q 3469 63 3072 -14 
Q 2675 -91 2278 -91 
Q 1328 -91 801 392 
Q 275 875 275 1747 
Q 275 2603 792 3093 
Q 1309 3584 2216 3584 
Q 3041 3584 3536 3087 
Q 4031 2591 4031 1759 
z
M 2881 2131 
Q 2881 2450 2695 2645 
Q 2509 2841 2209 2841 
Q 1884 2841 1681 2658 
Q 1478 2475 1428 2131 
L 2881 2131 
z
" transform="scale(0.015625)"/>
      <path id="DejaVuSans-Bold-74" d="M 1759 4494 
L 1759 3500 
L 2913 3500 
L 2913 2700 
L 1759 2700 
L 1759 1216 
Q 1759 972 1856 886 
Q 1953 800 2241 800 
L 2816 800 
L 2816 0 
L 1856 0 
Q 1194 0 917 276 
Q 641 553 641 1216 
L 641 2700 
L 84 2700 
L 84 3500 
L 641 3500 
L 641 4494 
L 1759 4494 
z
" transform="scale(0.015625)"/>
      <path id="DejaVuSans-Bold-67" d="M 2919 594 
Q 2688 288 2409 144 
Q 2131 0 1766 0 
Q 1125 0 706 504 
Q 288 1009 288 1791 
Q 288 2575 706 3076 
Q 1125 3578 1766 3578 
Q 2131 3578 2409 3434 
Q 2688 3291 2919 2981 
L 2919 3500 
L 4044 3500 
L 4044 353 
Q 4044 -491 3511 -936 
Q 2978 -1381 1966 -1381 
Q 1638 -1381 1331 -1331 
Q 1025 -1281 716 -1178 
L 716 -306 
Q 1009 -475 1290 -558 
Q 1572 -641 1856 -641 
Q 2406 -641 2662 -400 
Q 2919 -159 2919 353 
L 2919 594 
z
M 2181 2772 
Q 1834 2772 1640 2515 
Q 1447 2259 1447 1791 
Q 1447 1309 1634 1061 
Q 1822 813 2181 813 
Q 2531 813 2725 1069 
Q 2919 1325 2919 1791 
Q 2919 2259 2725 2515 
Q 2531 2772 2181 2772 
z
" transform="scale(0.015625)"/>
     </defs>
     <use xlink:href="#DejaVuSans-Bold-41"/>
     <use xlink:href="#DejaVuSans-Bold-6c" transform="translate(77.392578 0)"/>
     <use xlink:href="#DejaVuSans-Bold-75" transform="translate(111.669922 0)"/>
     <use xlink:href="#DejaVuSans-Bold-6d" transform="translate(182.861328 0)"/>
     <use xlink:href="#DejaVuSans-Bold-69" transform="translate(287.060547 0)"/>
     <use xlink:href="#DejaVuSans-Bold-6e" transform="translate(321.337891 0)"/>
     <use xlink:href="#DejaVuSans-Bold-69" transform="translate(392.529297 0)"/>
     <use xlink:href="#DejaVuSans-Bold-75" transform="translate(426.806641 0)"/>
     <use xlink:href="#DejaVuSans-Bold-6d" transform="translate(497.998047 0)"/>
     <use xlink:href="#DejaVuSans-Bold-20" transform="translate(602.197266 0)"/>
     <use xlink:href="#DejaVuSans-Bold-73" transform="translate(637.011719 0)"/>
     <use xlink:href="#DejaVuSans-Bold-6d" transform="translate(696.533203 0)"/>
     <use xlink:href="#DejaVuSans-Bold-65" transform="translate(800.732422 0)"/>
     <use xlink:href="#DejaVuSans-Bold-6c" transform="translate(868.554688 0)"/>
     <use xlink:href="#DejaVuSans-Bold-74" transform="translate(902.832031 0)"/>
     <use xlink:href="#DejaVuSans-Bold-69" transform="translate(950.634766 0)"/>
     <use xlink:href="#DejaVuSans-Bold-6e" transform="translate(984.912109 0)"/>
     <use xlink:href="#DejaVuSans-Bold-67" transform="translate(1056.103516 0)"/>
    </g>
   </g>
   <g id="legend_1">
    <g id="line2d_25">
     <path d="M 50.570938 83.754438 
L 60.570938 83.754438 
L 70.570938 83.754438 
" style="fill: none; stroke: #000000; stroke-width: 2.6; stroke-linecap: square"/>
    </g>
    <g id="text_14">
     <!-- 1.5°C sector budget, 10.16 Gt -->
     <g transform="translate(78.570938 87.254438) scale(0.1 -0.1)">
      <defs>
       <path id="DejaVuSans-2e" d="M 684 794 
L 1344 794 
L 1344 0 
L 684 0 
L 684 794 
z
" transform="scale(0.015625)"/>
       <path id="DejaVuSans-b0" d="M 1600 4347 
Q 1350 4347 1178 4173 
Q 1006 4000 1006 3750 
Q 1006 3503 1178 3333 
Q 1350 3163 1600 3163 
Q 1850 3163 2022 3333 
Q 2194 3503 2194 3750 
Q 2194 3997 2020 4172 
Q 1847 4347 1600 4347 
z
M 1600 4750 
Q 1800 4750 1984 4673 
Q 2169 4597 2303 4453 
Q 2447 4313 2519 4134 
Q 2591 3956 2591 3750 
Q 2591 3338 2302 3052 
Q 2013 2766 1594 2766 
Q 1172 2766 890 3047 
Q 609 3328 609 3750 
Q 609 4169 896 4459 
Q 1184 4750 1600 4750 
z
" transform="scale(0.015625)"/>
       <path id="DejaVuSans-63" d="M 3122 3366 
L 3122 2828 
Q 2878 2963 2633 3030 
Q 2388 3097 2138 3097 
Q 1578 3097 1268 2742 
Q 959 2388 959 1747 
Q 959 1106 1268 751 
Q 1578 397 2138 397 
Q 2388 397 2633 464 
Q 2878 531 3122 666 
L 3122 134 
Q 2881 22 2623 -34 
Q 2366 -91 2075 -91 
Q 1284 -91 818 406 
Q 353 903 353 1747 
Q 353 2603 823 3093 
Q 1294 3584 2113 3584 
Q 2378 3584 2631 3529 
Q 2884 3475 3122 3366 
z
" transform="scale(0.015625)"/>
       <path id="DejaVuSans-72" d="M 2631 2963 
Q 2534 3019 2420 3045 
Q 2306 3072 2169 3072 
Q 1681 3072 1420 2755 
Q 1159 2438 1159 1844 
L 1159 0 
L 581 0 
L 581 3500 
L 1159 3500 
L 1159 2956 
Q 1341 3275 1631 3429 
Q 1922 3584 2338 3584 
Q 2397 3584 2469 3576 
Q 2541 3569 2628 3553 
L 2631 2963 
z
" transform="scale(0.015625)"/>
       <path id="DejaVuSans-62" d="M 3116 1747 
Q 3116 2381 2855 2742 
Q 2594 3103 2138 3103 
Q 1681 3103 1420 2742 
Q 1159 2381 1159 1747 
Q 1159 1113 1420 752 
Q 1681 391 2138 391 
Q 2594 391 2855 752 
Q 3116 1113 3116 1747 
z
M 1159 2969 
Q 1341 3281 1617 3432 
Q 1894 3584 2278 3584 
Q 2916 3584 3314 3078 
Q 3713 2572 3713 1747 
Q 3713 922 3314 415 
Q 2916 -91 2278 -91 
Q 1894 -91 1617 61 
Q 1341 213 1159 525 
L 1159 0 
L 581 0 
L 581 4863 
L 1159 4863 
L 1159 2969 
z
" transform="scale(0.015625)"/>
       <path id="DejaVuSans-64" d="M 2906 2969 
L 2906 4863 
L 3481 4863 
L 3481 0 
L 2906 0 
L 2906 525 
Q 2725 213 2448 61 
Q 2172 -91 1784 -91 
Q 1150 -91 751 415 
Q 353 922 353 1747 
Q 353 2572 751 3078 
Q 1150 3584 1784 3584 
Q 2172 3584 2448 3432 
Q 2725 3281 2906 2969 
z
M 947 1747 
Q 947 1113 1208 752 
Q 1469 391 1925 391 
Q 2381 391 2643 752 
Q 2906 1113 2906 1747 
Q 2906 2381 2643 2742 
Q 2381 3103 1925 3103 
Q 1469 3103 1208 2742 
Q 947 2381 947 1747 
z
" transform="scale(0.015625)"/>
       <path id="DejaVuSans-67" d="M 2906 1791 
Q 2906 2416 2648 2759 
Q 2391 3103 1925 3103 
Q 1463 3103 1205 2759 
Q 947 2416 947 1791 
Q 947 1169 1205 825 
Q 1463 481 1925 481 
Q 2391 481 2648 825 
Q 2906 1169 2906 1791 
z
M 3481 434 
Q 3481 -459 3084 -895 
Q 2688 -1331 1869 -1331 
Q 1566 -1331 1297 -1286 
Q 1028 -1241 775 -1147 
L 775 -588 
Q 1028 -725 1275 -790 
Q 1522 -856 1778 -856 
Q 2344 -856 2625 -561 
Q 2906 -266 2906 331 
L 2906 616 
Q 2728 306 2450 153 
Q 2172 0 1784 0 
Q 1141 0 747 490 
Q 353 981 353 1791 
Q 353 2603 747 3093 
Q 1141 3584 1784 3584 
Q 2172 3584 2450 3431 
Q 2728 3278 2906 2969 
L 2906 3500 
L 3481 3500 
L 3481 434 
z
" transform="scale(0.015625)"/>
       <path id="DejaVuSans-2c" d="M 750 794 
L 1409 794 
L 1409 256 
L 897 -744 
L 494 -744 
L 750 256 
L 750 794 
z
" transform="scale(0.015625)"/>
      </defs>
      <use xlink:href="#DejaVuSans-31"/>
      <use xlink:href="#DejaVuSans-2e" transform="translate(63.623047 0)"/>
      <use xlink:href="#DejaVuSans-35" transform="translate(95.410156 0)"/>
      <use xlink:href="#DejaVuSans-b0" transform="translate(159.033203 0)"/>
      <use xlink:href="#DejaVuSans-43" transform="translate(209.033203 0)"/>
      <use xlink:href="#DejaVuSans-20" transform="translate(278.857422 0)"/>
      <use xlink:href="#DejaVuSans-73" transform="translate(310.644531 0)"/>
      <use xlink:href="#DejaVuSans-65" transform="translate(362.744141 0)"/>
      <use xlink:href="#DejaVuSans-63" transform="translate(424.267578 0)"/>
      <use xlink:href="#DejaVuSans-74" transform="translate(479.248047 0)"/>
      <use xlink:href="#DejaVuSans-6f" transform="translate(518.457031 0)"/>
      <use xlink:href="#DejaVuSans-72" transform="translate(579.638672 0)"/>
      <use xlink:href="#DejaVuSans-20" transform="translate(620.751953 0)"/>
      <use xlink:href="#DejaVuSans-62" transform="translate(652.539062 0)"/>
      <use xlink:href="#DejaVuSans-75" transform="translate(716.015625 0)"/>
      <use xlink:href="#DejaVuSans-64" transform="translate(779.394531 0)"/>
      <use xlink:href="#DejaVuSans-67" transform="translate(842.871094 0)"/>
      <use xlink:href="#DejaVuSans-65" transform="translate(906.347656 0)"/>
      <use xlink:href="#DejaVuSans-74" transform="translate(967.871094 0)"/>
      <use xlink:href="#DejaVuSans-2c" transform="translate(1007.080078 0)"/>
      <use xlink:href="#DejaVuSans-20" transform="translate(1038.867188 0)"/>
      <use xlink:href="#DejaVuSans-31" transform="translate(1070.654297 0)"/>
      <use xlink:href="#DejaVuSans-30" transform="translate(1134.277344 0)"/>
      <use xlink:href="#DejaVuSans-2e" transform="translate(1197.900391 0)"/>
      <use xlink:href="#DejaVuSans-31" transform="translate(1229.6875 0)"/>
      <use xlink:href="#DejaVuSans-36" transform="translate(1293.310547 0)"/>
      <use xlink:href="#DejaVuSans-20" transform="translate(1356.933594 0)"/>
      <use xlink:href="#DejaVuSans-47" transform="translate(1388.720703 0)"/>
      <use xlink:href="#DejaVuSans-74" transform="translate(1466.210938 0)"/>
     </g>
    </g>
   </g>
  </g>
  <g id="axes_2">
   <g id="patch_5">
    <path d="M 495.546937 318.008 
L 906.432937 318.008 
L 906.432937 70.656 
L 495.546937 70.656 
z
" style="fill: #ffffff"/>
   </g>
   <g id="matplotlib.axis_3">
    <g id="xtick_5">
     <g id="line2d_26">
      <g>
       <use xlink:href="#m9ac7cf0f4a" x="495.546937" y="318.008" style="stroke: #000000; stroke-width: 0.8"/>
      </g>
     </g>
     <g id="text_15">
      <!-- 2020 -->
      <g transform="translate(482.821937 332.606437) scale(0.1 -0.1)">
       <use xlink:href="#DejaVuSans-32"/>
       <use xlink:href="#DejaVuSans-30" transform="translate(63.623047 0)"/>
       <use xlink:href="#DejaVuSans-32" transform="translate(127.246094 0)"/>
       <use xlink:href="#DejaVuSans-30" transform="translate(190.869141 0)"/>
      </g>
     </g>
    </g>
    <g id="xtick_6">
     <g id="line2d_27">
      <g>
       <use xlink:href="#m9ac7cf0f4a" x="632.508937" y="318.008" style="stroke: #000000; stroke-width: 0.8"/>
      </g>
     </g>
     <g id="text_16">
      <!-- 2030 -->
      <g transform="translate(619.783937 332.606437) scale(0.1 -0.1)">
       <use xlink:href="#DejaVuSans-32"/>
       <use xlink:href="#DejaVuSans-30" transform="translate(63.623047 0)"/>
       <use xlink:href="#DejaVuSans-33" transform="translate(127.246094 0)"/>
       <use xlink:href="#DejaVuSans-30" transform="translate(190.869141 0)"/>
      </g>
     </g>
    </g>
    <g id="xtick_7">
     <g id="line2d_28">
      <g>
       <use xlink:href="#m9ac7cf0f4a" x="769.470937" y="318.008" style="stroke: #000000; stroke-width: 0.8"/>
      </g>
     </g>
     <g id="text_17">
      <!-- 2040 -->
      <g transform="translate(756.745937 332.606437) scale(0.1 -0.1)">
       <use xlink:href="#DejaVuSans-32"/>
       <use xlink:href="#DejaVuSans-30" transform="translate(63.623047 0)"/>
       <use xlink:href="#DejaVuSans-34" transform="translate(127.246094 0)"/>
       <use xlink:href="#DejaVuSans-30" transform="translate(190.869141 0)"/>
      </g>
     </g>
    </g>
    <g id="xtick_8">
     <g id="line2d_29">
      <g>
       <use xlink:href="#m9ac7cf0f4a" x="906.432937" y="318.008" style="stroke: #000000; stroke-width: 0.8"/>
      </g>
     </g>
     <g id="text_18">
      <!-- 2050 -->
      <g transform="translate(893.707937 332.606437) scale(0.1 -0.1)">
       <use xlink:href="#DejaVuSans-32"/>
       <use xlink:href="#DejaVuSans-30" transform="translate(63.623047 0)"/>
       <use xlink:href="#DejaVuSans-35" transform="translate(127.246094 0)"/>
       <use xlink:href="#DejaVuSans-30" transform="translate(190.869141 0)"/>
      </g>
     </g>
    </g>
   </g>
   <g id="matplotlib.axis_4">
    <g id="ytick_8">
     <g id="line2d_30">
      <g>
       <use xlink:href="#m3951cf9258" x="495.546937" y="318.008" style="stroke: #000000; stroke-width: 0.8"/>
      </g>
     </g>
     <g id="text_19">
      <!-- 0 -->
      <g transform="translate(482.184437 321.807219) scale(0.1 -0.1)">
       <use xlink:href="#DejaVuSans-30"/>
      </g>
     </g>
    </g>
    <g id="ytick_9">
     <g id="line2d_31">
      <g>
       <use xlink:href="#m3951cf9258" x="495.546937" y="283.54831" style="stroke: #000000; stroke-width: 0.8"/>
      </g>
     </g>
     <g id="text_20">
      <!-- 2 -->
      <g transform="translate(482.184437 287.347529) scale(0.1 -0.1)">
       <use xlink:href="#DejaVuSans-32"/>
      </g>
     </g>
    </g>
    <g id="ytick_10">
     <g id="line2d_32">
      <g>
       <use xlink:href="#m3951cf9258" x="495.546937" y="249.08862" style="stroke: #000000; stroke-width: 0.8"/>
      </g>
     </g>
     <g id="text_21">
      <!-- 4 -->
      <g transform="translate(482.184437 252.887839) scale(0.1 -0.1)">
       <use xlink:href="#DejaVuSans-34"/>
      </g>
     </g>
    </g>
    <g id="ytick_11">
     <g id="line2d_33">
      <g>
       <use xlink:href="#m3951cf9258" x="495.546937" y="214.62893" style="stroke: #000000; stroke-width: 0.8"/>
      </g>
     </g>
     <g id="text_22">
      <!-- 6 -->
      <g transform="translate(482.184437 218.428149) scale(0.1 -0.1)">
       <use xlink:href="#DejaVuSans-36"/>
      </g>
     </g>
    </g>
    <g id="ytick_12">
     <g id="line2d_34">
      <g>
       <use xlink:href="#m3951cf9258" x="495.546937" y="180.169241" style="stroke: #000000; stroke-width: 0.8"/>
      </g>
     </g>
     <g id="text_23">
      <!-- 8 -->
      <g transform="translate(482.184437 183.968459) scale(0.1 -0.1)">
       <use xlink:href="#DejaVuSans-38"/>
      </g>
     </g>
    </g>
    <g id="ytick_13">
     <g id="line2d_35">
      <g>
       <use xlink:href="#m3951cf9258" x="495.546937" y="145.709551" style="stroke: #000000; stroke-width: 0.8"/>
      </g>
     </g>
     <g id="text_24">
      <!-- 10 -->
      <g transform="translate(475.821937 149.508769) scale(0.1 -0.1)">
       <use xlink:href="#DejaVuSans-31"/>
       <use xlink:href="#DejaVuSans-30" transform="translate(63.623047 0)"/>
      </g>
     </g>
    </g>
    <g id="ytick_14">
     <g id="line2d_36">
      <g>
       <use xlink:href="#m3951cf9258" x="495.546937" y="111.249861" style="stroke: #000000; stroke-width: 0.8"/>
      </g>
     </g>
     <g id="text_25">
      <!-- 12 -->
      <g transform="translate(475.821937 115.04908) scale(0.1 -0.1)">
       <use xlink:href="#DejaVuSans-31"/>
       <use xlink:href="#DejaVuSans-32" transform="translate(63.623047 0)"/>
      </g>
     </g>
    </g>
    <g id="ytick_15">
     <g id="line2d_37">
      <g>
       <use xlink:href="#m3951cf9258" x="495.546937" y="76.790171" style="stroke: #000000; stroke-width: 0.8"/>
      </g>
     </g>
     <g id="text_26">
      <!-- 14 -->
      <g transform="translate(475.821937 80.58939) scale(0.1 -0.1)">
       <use xlink:href="#DejaVuSans-31"/>
       <use xlink:href="#DejaVuSans-34" transform="translate(63.623047 0)"/>
      </g>
     </g>
    </g>
   </g>
   <g id="line2d_38">
    <path d="M 495.546937 303.188749 
L 509.243137 287.799133 
L 522.939337 273.383291 
L 536.635537 259.132334 
L 550.331738 244.994254 
L 564.027937 231.538966 
L 577.724137 218.58729 
L 591.420337 206.026713 
L 605.116537 193.563591 
L 618.812738 181.666752 
L 632.508937 169.884607 
L 646.205137 159.625561 
L 659.901337 150.914984 
L 673.597537 143.788718 
L 687.293738 138.203427 
L 700.989937 133.399362 
L 714.686137 128.429316 
L 728.382337 123.838862 
L 742.078537 119.442043 
L 755.774737 115.345005 
L 769.470937 111.357103 
L 783.167137 107.504139 
L 796.863337 103.889928 
L 810.559537 100.448306 
L 824.255737 97.311603 
L 837.951937 94.395289 
L 851.648137 91.614491 
L 865.344337 88.963377 
L 879.040537 86.433521 
L 892.736737 84.023193 
L 906.432937 81.729857 
" clip-path="url(#p6799cb0558)" style="fill: none; stroke-dasharray: 1.9,3.135; stroke-dashoffset: 0; stroke: #9b2226; stroke-width: 1.9"/>
   </g>
   <g id="line2d_39">
    <path d="M 495.546937 303.207007 
L 509.243137 287.66873 
L 522.939337 273.158899 
L 536.635537 258.753999 
L 550.331738 244.943077 
L 564.027937 231.637455 
L 577.724137 218.82318 
L 591.420337 206.28088 
L 605.116537 193.909952 
L 618.812738 182.074498 
L 632.508937 170.331413 
L 646.205137 160.136561 
L 659.901337 151.589615 
L 673.597537 144.814433 
L 687.293738 139.397588 
L 700.989937 135.71253 
L 714.686137 131.923858 
L 728.382337 128.682017 
L 742.078537 125.764584 
L 755.774737 122.57042 
L 769.470937 119.593798 
L 783.167137 116.631058 
L 796.863337 113.820467 
L 810.559537 111.157676 
L 824.255737 108.637049 
L 837.951937 106.240922 
L 851.648137 103.848775 
L 865.344337 101.463568 
L 879.040537 99.055327 
L 892.736737 96.654288 
L 906.432937 94.256273 
" clip-path="url(#p6799cb0558)" style="fill: none; stroke-dasharray: 1.9,3.135; stroke-dashoffset: 0; stroke: #b45309; stroke-width: 1.9"/>
   </g>
   <g id="line2d_40">
    <path d="M 495.546937 303.188749 
L 509.243137 287.803716 
L 522.939337 273.43549 
L 536.635537 259.24745 
L 550.331738 245.097711 
L 564.027937 231.625668 
L 577.724137 218.684343 
L 591.420337 206.165026 
L 605.116537 193.766013 
L 618.812738 181.709679 
L 632.508937 169.866657 
L 646.205137 159.763762 
L 659.901337 151.059954 
L 673.597537 143.863821 
L 687.293738 138.346873 
L 700.989937 133.877183 
L 714.686137 129.17925 
L 728.382337 124.955872 
L 742.078537 121.237467 
L 755.774737 117.868702 
L 769.470937 114.627964 
L 783.167137 111.421247 
L 796.863337 108.466914 
L 810.559537 105.672629 
L 824.255737 103.029104 
L 837.951937 100.587517 
L 851.648137 98.391965 
L 865.344337 96.331393 
L 879.040537 94.393542 
L 892.736737 92.578738 
L 906.432937 90.883688 
" clip-path="url(#p6799cb0558)" style="fill: none; stroke-dasharray: 1.9,3.135; stroke-dashoffset: 0; stroke: #003f88; stroke-width: 1.9"/>
   </g>
   <g id="line2d_41">
    <path d="M 495.546937 303.207007 
L 509.243137 287.674702 
L 522.939337 273.258178 
L 536.635537 258.984521 
L 550.331738 245.121382 
L 564.027937 231.680079 
L 577.724137 218.865939 
L 591.420337 206.221206 
L 605.116537 193.90511 
L 618.812738 181.96597 
L 632.508937 170.108343 
L 646.205137 159.980808 
L 659.901337 151.917907 
L 673.597537 145.139523 
L 687.293738 139.749585 
L 700.989937 136.238208 
L 714.686137 132.744531 
L 728.382337 129.65733 
L 742.078537 126.93669 
L 755.774737 123.901137 
L 769.470937 121.74416 
L 783.167137 119.72638 
L 796.863337 118.023512 
L 810.559537 116.525686 
L 824.255737 115.058468 
L 837.951937 113.829841 
L 851.648137 112.645008 
L 865.344337 111.619385 
L 879.040537 110.598093 
L 892.736737 109.754617 
L 906.432937 108.913769 
" clip-path="url(#p6799cb0558)" style="fill: none; stroke-dasharray: 1.9,3.135; stroke-dashoffset: 0; stroke: #386641; stroke-width: 1.9"/>
   </g>
   <g id="line2d_42">
    <path d="M 495.546937 303.188749 
L 509.243137 287.808602 
L 522.939337 273.375686 
L 536.635537 259.117571 
L 550.331738 244.950472 
L 564.027937 231.469055 
L 577.724137 218.606858 
L 591.420337 205.821742 
L 605.116537 193.322704 
L 618.812738 181.301042 
L 632.508937 169.380529 
L 646.205137 159.227654 
L 659.901337 151.190803 
L 673.597537 144.198206 
L 687.293738 138.605986 
L 700.989937 133.802528 
L 714.686137 129.728904 
L 728.382337 126.344816 
L 742.078537 122.322715 
L 755.774737 118.601103 
L 769.470937 115.234652 
L 783.167137 111.976607 
L 796.863337 109.017813 
L 810.559537 106.186418 
L 824.255737 103.482737 
L 837.951937 100.994785 
L 851.648137 98.678295 
L 865.344337 96.482513 
L 879.040537 94.401333 
L 892.736737 92.446997 
L 906.432937 90.605989 
" clip-path="url(#p6799cb0558)" style="fill: none; stroke-dasharray: 7.03,3.04; stroke-dashoffset: 0; stroke: #9b2226; stroke-width: 1.9"/>
   </g>
   <g id="line2d_43">
    <path d="M 495.546937 303.207007 
L 509.243137 287.702383 
L 522.939337 273.205959 
L 536.635537 258.812416 
L 550.331738 245.006534 
L 564.027937 231.665372 
L 577.724137 218.801423 
L 591.420337 206.167467 
L 605.116537 193.905991 
L 618.812738 182.153804 
L 632.508937 170.379885 
L 646.205137 160.318746 
L 659.901337 152.361897 
L 673.597537 145.544352 
L 687.293738 140.146807 
L 700.989937 136.438384 
L 714.686137 132.746686 
L 728.382337 129.638993 
L 742.078537 126.89668 
L 755.774737 123.671282 
L 769.470937 121.467189 
L 783.167137 119.452064 
L 796.863337 117.757732 
L 810.559537 116.171835 
L 824.255737 114.606965 
L 837.951937 113.167692 
L 851.648137 111.798292 
L 865.344337 110.435955 
L 879.040537 109.079058 
L 892.736737 107.726592 
L 906.432937 106.376574 
" clip-path="url(#p6799cb0558)" style="fill: none; stroke-dasharray: 7.03,3.04; stroke-dashoffset: 0; stroke: #b45309; stroke-width: 1.9"/>
   </g>
   <g id="line2d_44">
    <path d="M 495.546937 303.188749 
L 509.243137 287.813324 
L 522.939337 273.450622 
L 536.635537 259.235835 
L 550.331738 245.105028 
L 564.027937 231.65888 
L 577.724137 218.752182 
L 591.420337 205.94911 
L 605.116537 193.626026 
L 618.812738 181.539105 
L 632.508937 169.977608 
L 646.205137 159.66659 
L 659.901337 150.990388 
L 673.597537 144.071174 
L 687.293738 138.496974 
L 700.989937 134.151555 
L 714.686137 130.401714 
L 728.382337 127.212529 
L 742.078537 124.356551 
L 755.774737 120.782867 
L 769.470937 118.578581 
L 783.167137 116.606143 
L 796.863337 114.864003 
L 810.559537 113.290267 
L 824.255737 111.838144 
L 837.951937 110.632187 
L 851.648137 109.544847 
L 865.344337 108.570533 
L 879.040537 107.713886 
L 892.736737 106.966281 
L 906.432937 106.325368 
" clip-path="url(#p6799cb0558)" style="fill: none; stroke-dasharray: 7.03,3.04; stroke-dashoffset: 0; stroke: #003f88; stroke-width: 1.9"/>
   </g>
   <g id="line2d_45">
    <path d="M 495.546937 303.207007 
L 509.243137 287.696572 
L 522.939337 273.147314 
L 536.635537 258.754454 
L 550.331738 244.884061 
L 564.027937 231.754007 
L 577.724137 219.015896 
L 591.420337 206.561683 
L 605.116537 194.282433 
L 618.812738 182.278174 
L 632.508937 170.543928 
L 646.205137 160.361222 
L 659.901337 152.790153 
L 673.597537 145.861188 
L 687.293738 140.45726 
L 700.989937 136.744959 
L 714.686137 133.053916 
L 728.382337 129.954021 
L 742.078537 127.210993 
L 755.774737 124.203884 
L 769.470937 122.023768 
L 783.167137 120.015698 
L 796.863337 118.299923 
L 810.559537 116.807578 
L 824.255737 115.340278 
L 837.951937 114.10372 
L 851.648137 112.92123 
L 865.344337 111.859072 
L 879.040537 110.801464 
L 892.736737 109.909403 
L 906.432937 109.02659 
" clip-path="url(#p6799cb0558)" style="fill: none; stroke-dasharray: 7.03,3.04; stroke-dashoffset: 0; stroke: #386641; stroke-width: 1.9"/>
   </g>
   <g id="line2d_46">
    <path d="M 495.546937 303.188749 
L 509.243137 287.815572 
L 522.939337 273.435621 
L 536.635537 259.242459 
L 550.331738 245.095374 
L 564.027937 231.614919 
L 577.724137 218.79148 
L 591.420337 206.174009 
L 605.116537 193.831289 
L 618.812738 181.809874 
L 632.508937 169.994742 
L 646.205137 159.841755 
L 659.901337 151.510265 
L 673.597537 144.557303 
L 687.293738 138.62301 
L 700.989937 134.800919 
L 714.686137 131.122838 
L 728.382337 127.834179 
L 742.078537 124.894911 
L 755.774737 121.464081 
L 769.470937 119.155845 
L 783.167137 117.075479 
L 796.863337 115.332658 
L 810.559537 113.702996 
L 824.255737 112.08365 
L 837.951937 110.596466 
L 851.648137 109.119024 
L 865.344337 107.651831 
L 879.040537 106.200005 
L 892.736737 104.758256 
L 906.432937 103.326499 
" clip-path="url(#p6799cb0558)" style="fill: none; stroke: #9b2226; stroke-width: 1.9; stroke-linecap: square"/>
   </g>
   <g id="line2d_47">
    <path d="M 495.546937 303.207007 
L 509.243137 287.731874 
L 522.939337 273.187464 
L 536.635537 258.77372 
L 550.331738 244.765942 
L 564.027937 231.397026 
L 577.724137 218.58513 
L 591.420337 206.132611 
L 605.116537 193.489971 
L 618.812738 181.553759 
L 632.508937 169.675698 
L 646.205137 159.542978 
L 659.901337 151.027497 
L 673.597537 144.120619 
L 687.293738 138.513652 
L 700.989937 134.624218 
L 714.686137 130.778143 
L 728.382337 127.554718 
L 742.078537 124.620321 
L 755.774737 121.423784 
L 769.470937 119.121883 
L 783.167137 117.080173 
L 796.863337 115.3636 
L 810.559537 113.841799 
L 824.255737 112.363564 
L 837.951937 111.014351 
L 851.648137 109.67223 
L 865.344337 108.336934 
L 879.040537 107.013784 
L 892.736737 105.697583 
L 906.432937 104.386887 
" clip-path="url(#p6799cb0558)" style="fill: none; stroke: #b45309; stroke-width: 1.9; stroke-linecap: square"/>
   </g>
   <g id="line2d_48">
    <path d="M 495.546937 303.188749 
L 509.243137 287.820008 
L 522.939337 273.359974 
L 536.635537 259.064629 
L 550.331738 244.920249 
L 564.027937 231.446733 
L 577.724137 218.654624 
L 591.420337 205.953897 
L 605.116537 193.421395 
L 618.812738 181.337812 
L 632.508937 169.412092 
L 646.205137 159.289681 
L 659.901337 150.669499 
L 673.597537 143.819393 
L 687.293738 137.981355 
L 700.989937 133.986587 
L 714.686137 130.240704 
L 728.382337 127.00322 
L 742.078537 124.016396 
L 755.774737 120.90662 
L 769.470937 118.588548 
L 783.167137 116.52428 
L 796.863337 114.817495 
L 810.559537 113.173291 
L 824.255737 111.547516 
L 837.951937 110.027665 
L 851.648137 108.540521 
L 865.344337 107.13083 
L 879.040537 105.73805 
L 892.736737 104.358328 
L 906.432937 102.991684 
" clip-path="url(#p6799cb0558)" style="fill: none; stroke: #003f88; stroke-width: 1.9; stroke-linecap: square"/>
   </g>
   <g id="line2d_49">
    <path d="M 495.546937 303.207007 
L 509.243137 287.701755 
L 522.939337 273.163024 
L 536.635537 258.710275 
L 550.331738 244.720055 
L 564.027937 231.422982 
L 577.724137 218.551031 
L 591.420337 206.095405 
L 605.116537 193.533221 
L 618.812738 181.517472 
L 632.508937 169.684851 
L 646.205137 159.313223 
L 659.901337 150.379763 
L 673.597537 143.441345 
L 687.293738 137.897712 
L 700.989937 133.971284 
L 714.686137 130.247477 
L 728.382337 127.13251 
L 742.078537 124.25678 
L 755.774737 121.210306 
L 769.470937 118.915763 
L 783.167137 116.882538 
L 796.863337 115.184783 
L 810.559537 113.671521 
L 824.255737 112.178496 
L 837.951937 110.896043 
L 851.648137 109.702007 
L 865.344337 108.52864 
L 879.040537 107.38859 
L 892.736737 106.255705 
L 906.432937 105.129864 
" clip-path="url(#p6799cb0558)" style="fill: none; stroke: #386641; stroke-width: 1.9; stroke-linecap: square"/>
   </g>
   <g id="line2d_50">
    <path d="M 495.546937 302.740285 
L 509.243137 287.844791 
L 522.939337 273.321518 
L 536.635537 259.170465 
L 550.331738 245.391633 
L 564.027937 231.985021 
L 577.724137 218.95063 
L 591.420337 206.288459 
L 605.116537 193.998509 
L 618.812738 182.08078 
L 632.508937 170.535271 
L 646.205137 160.519298 
L 659.901337 152.032862 
L 673.597537 145.075962 
L 687.293738 139.648598 
L 700.989937 135.75077 
L 714.686137 132.238825 
L 728.382337 129.112762 
L 742.078537 126.372582 
L 755.774737 124.018284 
L 769.470937 122.049869 
L 783.167137 120.258761 
L 796.863337 118.64496 
L 810.559537 117.208467 
L 824.255737 115.949282 
L 837.951937 114.867403 
L 851.648137 113.912085 
L 865.344337 113.083328 
L 879.040537 112.38113 
L 892.736737 111.805494 
L 906.432937 111.356417 
" clip-path="url(#p6799cb0558)" style="fill: none; stroke: #000000; stroke-width: 2.6; stroke-linecap: square"/>
   </g>
   <g id="patch_6">
    <path d="M 495.546937 318.008 
L 495.546937 70.656 
" style="fill: none; stroke: #000000; stroke-width: 0.8; stroke-linejoin: miter; stroke-linecap: square"/>
   </g>
   <g id="patch_7">
    <path d="M 495.546937 318.008 
L 906.432937 318.008 
" style="fill: none; stroke: #000000; stroke-width: 0.8; stroke-linejoin: miter; stroke-linecap: square"/>
   </g>
   <g id="text_27">
    <!-- Smelting and alumina refining -->
    <g transform="translate(598.322437 64.656) scale(0.12 -0.12)">
     <defs>
      <path id="DejaVuSans-Bold-53" d="M 3834 4519 
L 3834 3531 
Q 3450 3703 3084 3790 
Q 2719 3878 2394 3878 
Q 1963 3878 1756 3759 
Q 1550 3641 1550 3391 
Q 1550 3203 1689 3098 
Q 1828 2994 2194 2919 
L 2706 2816 
Q 3484 2659 3812 2340 
Q 4141 2022 4141 1434 
Q 4141 663 3683 286 
Q 3225 -91 2284 -91 
Q 1841 -91 1394 -6 
Q 947 78 500 244 
L 500 1259 
Q 947 1022 1364 901 
Q 1781 781 2169 781 
Q 2563 781 2772 912 
Q 2981 1044 2981 1288 
Q 2981 1506 2839 1625 
Q 2697 1744 2272 1838 
L 1806 1941 
Q 1106 2091 782 2419 
Q 459 2747 459 3303 
Q 459 4000 909 4375 
Q 1359 4750 2203 4750 
Q 2588 4750 2994 4692 
Q 3400 4634 3834 4519 
z
" transform="scale(0.015625)"/>
      <path id="DejaVuSans-Bold-61" d="M 2106 1575 
Q 1756 1575 1579 1456 
Q 1403 1338 1403 1106 
Q 1403 894 1545 773 
Q 1688 653 1941 653 
Q 2256 653 2472 879 
Q 2688 1106 2688 1447 
L 2688 1575 
L 2106 1575 
z
M 3816 1997 
L 3816 0 
L 2688 0 
L 2688 519 
Q 2463 200 2181 54 
Q 1900 -91 1497 -91 
Q 953 -91 614 226 
Q 275 544 275 1050 
Q 275 1666 698 1953 
Q 1122 2241 2028 2241 
L 2688 2241 
L 2688 2328 
Q 2688 2594 2478 2717 
Q 2269 2841 1825 2841 
Q 1466 2841 1156 2769 
Q 847 2697 581 2553 
L 581 3406 
Q 941 3494 1303 3539 
Q 1666 3584 2028 3584 
Q 2975 3584 3395 3211 
Q 3816 2838 3816 1997 
z
" transform="scale(0.015625)"/>
      <path id="DejaVuSans-Bold-64" d="M 2919 2988 
L 2919 4863 
L 4044 4863 
L 4044 0 
L 2919 0 
L 2919 506 
Q 2688 197 2409 53 
Q 2131 -91 1766 -91 
Q 1119 -91 703 423 
Q 288 938 288 1747 
Q 288 2556 703 3070 
Q 1119 3584 1766 3584 
Q 2128 3584 2408 3439 
Q 2688 3294 2919 2988 
z
M 2181 722 
Q 2541 722 2730 984 
Q 2919 1247 2919 1747 
Q 2919 2247 2730 2509 
Q 2541 2772 2181 2772 
Q 1825 2772 1636 2509 
Q 1447 2247 1447 1747 
Q 1447 1247 1636 984 
Q 1825 722 2181 722 
z
" transform="scale(0.015625)"/>
      <path id="DejaVuSans-Bold-72" d="M 3138 2547 
Q 2991 2616 2845 2648 
Q 2700 2681 2553 2681 
Q 2122 2681 1889 2404 
Q 1656 2128 1656 1613 
L 1656 0 
L 538 0 
L 538 3500 
L 1656 3500 
L 1656 2925 
Q 1872 3269 2151 3426 
Q 2431 3584 2822 3584 
Q 2878 3584 2943 3579 
Q 3009 3575 3134 3559 
L 3138 2547 
z
" transform="scale(0.015625)"/>
      <path id="DejaVuSans-Bold-66" d="M 2841 4863 
L 2841 4128 
L 2222 4128 
Q 1984 4128 1890 4042 
Q 1797 3956 1797 3744 
L 1797 3500 
L 2753 3500 
L 2753 2700 
L 1797 2700 
L 1797 0 
L 678 0 
L 678 2700 
L 122 2700 
L 122 3500 
L 678 3500 
L 678 3744 
Q 678 4316 997 4589 
Q 1316 4863 1984 4863 
L 2841 4863 
z
" transform="scale(0.015625)"/>
     </defs>
     <use xlink:href="#DejaVuSans-Bold-53"/>
     <use xlink:href="#DejaVuSans-Bold-6d" transform="translate(72.021484 0)"/>
     <use xlink:href="#DejaVuSans-Bold-65" transform="translate(176.220703 0)"/>
     <use xlink:href="#DejaVuSans-Bold-6c" transform="translate(244.042969 0)"/>
     <use xlink:href="#DejaVuSans-Bold-74" transform="translate(278.320312 0)"/>
     <use xlink:href="#DejaVuSans-Bold-69" transform="translate(326.123047 0)"/>
     <use xlink:href="#DejaVuSans-Bold-6e" transform="translate(360.400391 0)"/>
     <use xlink:href="#DejaVuSans-Bold-67" transform="translate(431.591797 0)"/>
     <use xlink:href="#DejaVuSans-Bold-20" transform="translate(503.173828 0)"/>
     <use xlink:href="#DejaVuSans-Bold-61" transform="translate(537.988281 0)"/>
     <use xlink:href="#DejaVuSans-Bold-6e" transform="translate(605.46875 0)"/>
     <use xlink:href="#DejaVuSans-Bold-64" transform="translate(676.660156 0)"/>
     <use xlink:href="#DejaVuSans-Bold-20" transform="translate(748.242188 0)"/>
     <use xlink:href="#DejaVuSans-Bold-61" transform="translate(783.056641 0)"/>
     <use xlink:href="#DejaVuSans-Bold-6c" transform="translate(850.537109 0)"/>
     <use xlink:href="#DejaVuSans-Bold-75" transform="translate(884.814453 0)"/>
     <use xlink:href="#DejaVuSans-Bold-6d" transform="translate(956.005859 0)"/>
     <use xlink:href="#DejaVuSans-Bold-69" transform="translate(1060.205078 0)"/>
     <use xlink:href="#DejaVuSans-Bold-6e" transform="translate(1094.482422 0)"/>
     <use xlink:href="#DejaVuSans-Bold-61" transform="translate(1165.673828 0)"/>
     <use xlink:href="#DejaVuSans-Bold-20" transform="translate(1233.154297 0)"/>
     <use xlink:href="#DejaVuSans-Bold-72" transform="translate(1267.96875 0)"/>
     <use xlink:href="#DejaVuSans-Bold-65" transform="translate(1317.285156 0)"/>
     <use xlink:href="#DejaVuSans-Bold-66" transform="translate(1385.107422 0)"/>
     <use xlink:href="#DejaVuSans-Bold-69" transform="translate(1428.613281 0)"/>
     <use xlink:href="#DejaVuSans-Bold-6e" transform="translate(1462.890625 0)"/>
     <use xlink:href="#DejaVuSans-Bold-69" transform="translate(1534.082031 0)"/>
     <use xlink:href="#DejaVuSans-Bold-6e" transform="translate(1568.359375 0)"/>
     <use xlink:href="#DejaVuSans-Bold-67" transform="translate(1639.550781 0)"/>
    </g>
   </g>
   <g id="legend_2">
    <g id="line2d_51">
     <path d="M 504.546937 83.754438 
L 514.546937 83.754438 
L 524.546937 83.754438 
" style="fill: none; stroke: #000000; stroke-width: 2.6; stroke-linecap: square"/>
    </g>
    <g id="text_28">
     <!-- 1.5°C sector budget, 11.99 Gt -->
     <g transform="translate(532.546937 87.254438) scale(0.1 -0.1)">
      <defs>
       <path id="DejaVuSans-39" d="M 703 97 
L 703 672 
Q 941 559 1184 500 
Q 1428 441 1663 441 
Q 2288 441 2617 861 
Q 2947 1281 2994 2138 
Q 2813 1869 2534 1725 
Q 2256 1581 1919 1581 
Q 1219 1581 811 2004 
Q 403 2428 403 3163 
Q 403 3881 828 4315 
Q 1253 4750 1959 4750 
Q 2769 4750 3195 4129 
Q 3622 3509 3622 2328 
Q 3622 1225 3098 567 
Q 2575 -91 1691 -91 
Q 1453 -91 1209 -44 
Q 966 3 703 97 
z
M 1959 2075 
Q 2384 2075 2632 2365 
Q 2881 2656 2881 3163 
Q 2881 3666 2632 3958 
Q 2384 4250 1959 4250 
Q 1534 4250 1286 3958 
Q 1038 3666 1038 3163 
Q 1038 2656 1286 2365 
Q 1534 2075 1959 2075 
z
" transform="scale(0.015625)"/>
      </defs>
      <use xlink:href="#DejaVuSans-31"/>
      <use xlink:href="#DejaVuSans-2e" transform="translate(63.623047 0)"/>
      <use xlink:href="#DejaVuSans-35" transform="translate(95.410156 0)"/>
      <use xlink:href="#DejaVuSans-b0" transform="translate(159.033203 0)"/>
      <use xlink:href="#DejaVuSans-43" transform="translate(209.033203 0)"/>
      <use xlink:href="#DejaVuSans-20" transform="translate(278.857422 0)"/>
      <use xlink:href="#DejaVuSans-73" transform="translate(310.644531 0)"/>
      <use xlink:href="#DejaVuSans-65" transform="translate(362.744141 0)"/>
      <use xlink:href="#DejaVuSans-63" transform="translate(424.267578 0)"/>
      <use xlink:href="#DejaVuSans-74" transform="translate(479.248047 0)"/>
      <use xlink:href="#DejaVuSans-6f" transform="translate(518.457031 0)"/>
      <use xlink:href="#DejaVuSans-72" transform="translate(579.638672 0)"/>
      <use xlink:href="#DejaVuSans-20" transform="translate(620.751953 0)"/>
      <use xlink:href="#DejaVuSans-62" transform="translate(652.539062 0)"/>
      <use xlink:href="#DejaVuSans-75" transform="translate(716.015625 0)"/>
      <use xlink:href="#DejaVuSans-64" transform="translate(779.394531 0)"/>
      <use xlink:href="#DejaVuSans-67" transform="translate(842.871094 0)"/>
      <use xlink:href="#DejaVuSans-65" transform="translate(906.347656 0)"/>
      <use xlink:href="#DejaVuSans-74" transform="translate(967.871094 0)"/>
      <use xlink:href="#DejaVuSans-2c" transform="translate(1007.080078 0)"/>
      <use xlink:href="#DejaVuSans-20" transform="translate(1038.867188 0)"/>
      <use xlink:href="#DejaVuSans-31" transform="translate(1070.654297 0)"/>
      <use xlink:href="#DejaVuSans-31" transform="translate(1134.277344 0)"/>
      <use xlink:href="#DejaVuSans-2e" transform="translate(1197.900391 0)"/>
      <use xlink:href="#DejaVuSans-39" transform="translate(1229.6875 0)"/>
      <use xlink:href="#DejaVuSans-39" transform="translate(1293.310547 0)"/>
      <use xlink:href="#DejaVuSans-20" transform="translate(1356.933594 0)"/>
      <use xlink:href="#DejaVuSans-47" transform="translate(1388.720703 0)"/>
      <use xlink:href="#DejaVuSans-74" transform="translate(1466.210938 0)"/>
     </g>
    </g>
   </g>
  </g>
  <g id="text_29">
   <!-- Cumulative emissions against the 1.5°C sector carbon budget, 12 scenarios -->
   <g transform="translate(162.819187 17.837812) scale(0.14 -0.14)">
    <defs>
     <path id="DejaVuSans-Bold-43" d="M 4288 256 
Q 3956 84 3597 -3 
Q 3238 -91 2847 -91 
Q 1681 -91 1000 561 
Q 319 1213 319 2328 
Q 319 3447 1000 4098 
Q 1681 4750 2847 4750 
Q 3238 4750 3597 4662 
Q 3956 4575 4288 4403 
L 4288 3438 
Q 3953 3666 3628 3772 
Q 3303 3878 2944 3878 
Q 2300 3878 1931 3465 
Q 1563 3053 1563 2328 
Q 1563 1606 1931 1193 
Q 2300 781 2944 781 
Q 3303 781 3628 887 
Q 3953 994 4288 1222 
L 4288 256 
z
" transform="scale(0.015625)"/>
     <path id="DejaVuSans-Bold-76" d="M 97 3500 
L 1216 3500 
L 2088 1081 
L 2956 3500 
L 4078 3500 
L 2700 0 
L 1472 0 
L 97 3500 
z
" transform="scale(0.015625)"/>
     <path id="DejaVuSans-Bold-6f" d="M 2203 2784 
Q 1831 2784 1636 2517 
Q 1441 2250 1441 1747 
Q 1441 1244 1636 976 
Q 1831 709 2203 709 
Q 2569 709 2762 976 
Q 2956 1244 2956 1747 
Q 2956 2250 2762 2517 
Q 2569 2784 2203 2784 
z
M 2203 3584 
Q 3106 3584 3614 3096 
Q 4122 2609 4122 1747 
Q 4122 884 3614 396 
Q 3106 -91 2203 -91 
Q 1297 -91 786 396 
Q 275 884 275 1747 
Q 275 2609 786 3096 
Q 1297 3584 2203 3584 
z
" transform="scale(0.015625)"/>
     <path id="DejaVuSans-Bold-68" d="M 4056 2131 
L 4056 0 
L 2931 0 
L 2931 347 
L 2931 1625 
Q 2931 2084 2911 2256 
Q 2891 2428 2841 2509 
Q 2775 2619 2662 2680 
Q 2550 2741 2406 2741 
Q 2056 2741 1856 2470 
Q 1656 2200 1656 1722 
L 1656 0 
L 538 0 
L 538 4863 
L 1656 4863 
L 1656 2988 
Q 1909 3294 2193 3439 
Q 2478 3584 2822 3584 
Q 3428 3584 3742 3212 
Q 4056 2841 4056 2131 
z
" transform="scale(0.015625)"/>
     <path id="DejaVuSans-Bold-31" d="M 750 831 
L 1813 831 
L 1813 3847 
L 722 3622 
L 722 4441 
L 1806 4666 
L 2950 4666 
L 2950 831 
L 4013 831 
L 4013 0 
L 750 0 
L 750 831 
z
" transform="scale(0.015625)"/>
     <path id="DejaVuSans-Bold-2e" d="M 653 1209 
L 1778 1209 
L 1778 0 
L 653 0 
L 653 1209 
z
" transform="scale(0.015625)"/>
     <path id="DejaVuSans-Bold-35" d="M 678 4666 
L 3669 4666 
L 3669 3781 
L 1638 3781 
L 1638 3059 
Q 1775 3097 1914 3117 
Q 2053 3138 2203 3138 
Q 3056 3138 3531 2711 
Q 4006 2284 4006 1522 
Q 4006 766 3489 337 
Q 2972 -91 2053 -91 
Q 1656 -91 1267 -14 
Q 878 63 494 219 
L 494 1166 
Q 875 947 1217 837 
Q 1559 728 1863 728 
Q 2300 728 2551 942 
Q 2803 1156 2803 1522 
Q 2803 1891 2551 2103 
Q 2300 2316 1863 2316 
Q 1603 2316 1309 2248 
Q 1016 2181 678 2041 
L 678 4666 
z
" transform="scale(0.015625)"/>
     <path id="DejaVuSans-Bold-b0" d="M 1600 4288 
Q 1375 4288 1219 4131 
Q 1063 3975 1063 3750 
Q 1063 3525 1217 3372 
Q 1372 3219 1600 3219 
Q 1825 3219 1981 3373 
Q 2138 3528 2138 3750 
Q 2138 3975 1980 4131 
Q 1822 4288 1600 4288 
z
M 1600 4794 
Q 1806 4794 1997 4714 
Q 2188 4634 2338 4488 
Q 2484 4338 2561 4150 
Q 2638 3963 2638 3750 
Q 2638 3541 2561 3352 
Q 2484 3163 2344 3022 
Q 2194 2872 2000 2792 
Q 1806 2713 1594 2713 
Q 1153 2713 854 3011 
Q 556 3309 556 3750 
Q 556 4191 857 4492 
Q 1159 4794 1600 4794 
z
" transform="scale(0.015625)"/>
     <path id="DejaVuSans-Bold-63" d="M 3366 3391 
L 3366 2478 
Q 3138 2634 2908 2709 
Q 2678 2784 2431 2784 
Q 1963 2784 1702 2511 
Q 1441 2238 1441 1747 
Q 1441 1256 1702 982 
Q 1963 709 2431 709 
Q 2694 709 2930 787 
Q 3166 866 3366 1019 
L 3366 103 
Q 3103 6 2833 -42 
Q 2563 -91 2291 -91 
Q 1344 -91 809 395 
Q 275 881 275 1747 
Q 275 2613 809 3098 
Q 1344 3584 2291 3584 
Q 2566 3584 2833 3536 
Q 3100 3488 3366 3391 
z
" transform="scale(0.015625)"/>
     <path id="DejaVuSans-Bold-62" d="M 2400 722 
Q 2759 722 2948 984 
Q 3138 1247 3138 1747 
Q 3138 2247 2948 2509 
Q 2759 2772 2400 2772 
Q 2041 2772 1848 2508 
Q 1656 2244 1656 1747 
Q 1656 1250 1848 986 
Q 2041 722 2400 722 
z
M 1656 2988 
Q 1888 3294 2169 3439 
Q 2450 3584 2816 3584 
Q 3463 3584 3878 3070 
Q 4294 2556 4294 1747 
Q 4294 938 3878 423 
Q 3463 -91 2816 -91 
Q 2450 -91 2169 54 
Q 1888 200 1656 506 
L 1656 0 
L 538 0 
L 538 4863 
L 1656 4863 
L 1656 2988 
z
" transform="scale(0.015625)"/>
     <path id="DejaVuSans-Bold-2c" d="M 653 1209 
L 1778 1209 
L 1778 256 
L 1006 -909 
L 341 -909 
L 653 256 
L 653 1209 
z
" transform="scale(0.015625)"/>
     <path id="DejaVuSans-Bold-32" d="M 1844 884 
L 3897 884 
L 3897 0 
L 506 0 
L 506 884 
L 2209 2388 
Q 2438 2594 2547 2791 
Q 2656 2988 2656 3200 
Q 2656 3528 2436 3728 
Q 2216 3928 1850 3928 
Q 1569 3928 1234 3808 
Q 900 3688 519 3450 
L 519 4475 
Q 925 4609 1322 4679 
Q 1719 4750 2100 4750 
Q 2938 4750 3402 4381 
Q 3866 4013 3866 3353 
Q 3866 2972 3669 2642 
Q 3472 2313 2841 1759 
L 1844 884 
z
" transform="scale(0.015625)"/>
    </defs>
    <use xlink:href="#DejaVuSans-Bold-43"/>
    <use xlink:href="#DejaVuSans-Bold-75" transform="translate(73.388672 0)"/>
    <use xlink:href="#DejaVuSans-Bold-6d" transform="translate(144.580078 0)"/>
    <use xlink:href="#DejaVuSans-Bold-75" transform="translate(248.779297 0)"/>
    <use xlink:href="#DejaVuSans-Bold-6c" transform="translate(319.970703 0)"/>
    <use xlink:href="#DejaVuSans-Bold-61" transform="translate(354.248047 0)"/>
    <use xlink:href="#DejaVuSans-Bold-74" transform="translate(421.728516 0)"/>
    <use xlink:href="#DejaVuSans-Bold-69" transform="translate(469.53125 0)"/>
    <use xlink:href="#DejaVuSans-Bold-76" transform="translate(503.808594 0)"/>
    <use xlink:href="#DejaVuSans-Bold-65" transform="translate(568.994141 0)"/>
    <use xlink:href="#DejaVuSans-Bold-20" transform="translate(636.816406 0)"/>
    <use xlink:href="#DejaVuSans-Bold-65" transform="translate(671.630859 0)"/>
    <use xlink:href="#DejaVuSans-Bold-6d" transform="translate(739.453125 0)"/>
    <use xlink:href="#DejaVuSans-Bold-69" transform="translate(843.652344 0)"/>
    <use xlink:href="#DejaVuSans-Bold-73" transform="translate(877.929688 0)"/>
    <use xlink:href="#DejaVuSans-Bold-73" transform="translate(937.451172 0)"/>
    <use xlink:href="#DejaVuSans-Bold-69" transform="translate(996.972656 0)"/>
    <use xlink:href="#DejaVuSans-Bold-6f" transform="translate(1031.25 0)"/>
    <use xlink:href="#DejaVuSans-Bold-6e" transform="translate(1099.951172 0)"/>
    <use xlink:href="#DejaVuSans-Bold-73" transform="translate(1171.142578 0)"/>
    <use xlink:href="#DejaVuSans-Bold-20" transform="translate(1230.664062 0)"/>
    <use xlink:href="#DejaVuSans-Bold-61" transform="translate(1265.478516 0)"/>
    <use xlink:href="#DejaVuSans-Bold-67" transform="translate(1332.958984 0)"/>
    <use xlink:href="#DejaVuSans-Bold-61" transform="translate(1404.541016 0)"/>
    <use xlink:href="#DejaVuSans-Bold-69" transform="translate(1472.021484 0)"/>
    <use xlink:href="#DejaVuSans-Bold-6e" transform="translate(1506.298828 0)"/>
    <use xlink:href="#DejaVuSans-Bold-73" transform="translate(1577.490234 0)"/>
    <use xlink:href="#DejaVuSans-Bold-74" transform="translate(1637.011719 0)"/>
    <use xlink:href="#DejaVuSans-Bold-20" transform="translate(1684.814453 0)"/>
    <use xlink:href="#DejaVuSans-Bold-74" transform="translate(1719.628906 0)"/>
    <use xlink:href="#DejaVuSans-Bold-68" transform="translate(1767.431641 0)"/>
    <use xlink:href="#DejaVuSans-Bold-65" transform="translate(1838.623047 0)"/>
    <use xlink:href="#DejaVuSans-Bold-20" transform="translate(1906.445312 0)"/>
    <use xlink:href="#DejaVuSans-Bold-31" transform="translate(1941.259766 0)"/>
    <use xlink:href="#DejaVuSans-Bold-2e" transform="translate(2010.839844 0)"/>
    <use xlink:href="#DejaVuSans-Bold-35" transform="translate(2048.828125 0)"/>
    <use xlink:href="#DejaVuSans-Bold-b0" transform="translate(2118.408203 0)"/>
    <use xlink:href="#DejaVuSans-Bold-43" transform="translate(2168.408203 0)"/>
    <use xlink:href="#DejaVuSans-Bold-20" transform="translate(2241.796875 0)"/>
    <use xlink:href="#DejaVuSans-Bold-73" transform="translate(2276.611328 0)"/>
    <use xlink:href="#DejaVuSans-Bold-65" transform="translate(2336.132812 0)"/>
    <use xlink:href="#DejaVuSans-Bold-63" transform="translate(2403.955078 0)"/>
    <use xlink:href="#DejaVuSans-Bold-74" transform="translate(2463.232422 0)"/>
    <use xlink:href="#DejaVuSans-Bold-6f" transform="translate(2511.035156 0)"/>
    <use xlink:href="#DejaVuSans-Bold-72" transform="translate(2579.736328 0)"/>
    <use xlink:href="#DejaVuSans-Bold-20" transform="translate(2629.052734 0)"/>
    <use xlink:href="#DejaVuSans-Bold-63" transform="translate(2663.867188 0)"/>
    <use xlink:href="#DejaVuSans-Bold-61" transform="translate(2723.144531 0)"/>
    <use xlink:href="#DejaVuSans-Bold-72" transform="translate(2790.625 0)"/>
    <use xlink:href="#DejaVuSans-Bold-62" transform="translate(2839.941406 0)"/>
    <use xlink:href="#DejaVuSans-Bold-6f" transform="translate(2911.523438 0)"/>
    <use xlink:href="#DejaVuSans-Bold-6e" transform="translate(2980.224609 0)"/>
    <use xlink:href="#DejaVuSans-Bold-20" transform="translate(3051.416016 0)"/>
    <use xlink:href="#DejaVuSans-Bold-62" transform="translate(3086.230469 0)"/>
    <use xlink:href="#DejaVuSans-Bold-75" transform="translate(3157.8125 0)"/>
    <use xlink:href="#DejaVuSans-Bold-64" transform="translate(3229.003906 0)"/>
    <use xlink:href="#DejaVuSans-Bold-67" transform="translate(3300.585938 0)"/>
    <use xlink:href="#DejaVuSans-Bold-65" transform="translate(3372.167969 0)"/>
    <use xlink:href="#DejaVuSans-Bold-74" transform="translate(3439.990234 0)"/>
    <use xlink:href="#DejaVuSans-Bold-2c" transform="translate(3487.792969 0)"/>
    <use xlink:href="#DejaVuSans-Bold-20" transform="translate(3525.78125 0)"/>
    <use xlink:href="#DejaVuSans-Bold-31" transform="translate(3560.595703 0)"/>
    <use xlink:href="#DejaVuSans-Bold-32" transform="translate(3630.175781 0)"/>
    <use xlink:href="#DejaVuSans-Bold-20" transform="translate(3699.755859 0)"/>
    <use xlink:href="#DejaVuSans-Bold-73" transform="translate(3734.570312 0)"/>
    <use xlink:href="#DejaVuSans-Bold-63" transform="translate(3794.091797 0)"/>
    <use xlink:href="#DejaVuSans-Bold-65" transform="translate(3853.369141 0)"/>
    <use xlink:href="#DejaVuSans-Bold-6e" transform="translate(3921.191406 0)"/>
    <use xlink:href="#DejaVuSans-Bold-61" transform="translate(3992.382812 0)"/>
    <use xlink:href="#DejaVuSans-Bold-72" transform="translate(4059.863281 0)"/>
    <use xlink:href="#DejaVuSans-Bold-69" transform="translate(4109.179688 0)"/>
    <use xlink:href="#DejaVuSans-Bold-6f" transform="translate(4143.457031 0)"/>
    <use xlink:href="#DejaVuSans-Bold-73" transform="translate(4212.158203 0)"/>
   </g>
  </g>
  <g id="legend_3">
   <g id="line2d_52">
    <path d="M 76.312625 357.516312 
L 86.312625 357.516312 
L 96.312625 357.516312 
" style="fill: none; stroke: #9b2226; stroke-width: 2.4; stroke-linecap: square"/>
   </g>
   <g id="text_30">
    <!-- MPP grid, inert anode locked -->
    <g transform="translate(104.312625 361.016312) scale(0.1 -0.1)">
     <defs>
      <path id="DejaVuSans-4d" d="M 628 4666 
L 1569 4666 
L 2759 1491 
L 3956 4666 
L 4897 4666 
L 4897 0 
L 4281 0 
L 4281 4097 
L 3078 897 
L 2444 897 
L 1241 4097 
L 1241 0 
L 628 0 
L 628 4666 
z
" transform="scale(0.015625)"/>
      <path id="DejaVuSans-50" d="M 1259 4147 
L 1259 2394 
L 2053 2394 
Q 2494 2394 2734 2622 
Q 2975 2850 2975 3272 
Q 2975 3691 2734 3919 
Q 2494 4147 2053 4147 
L 1259 4147 
z
M 628 4666 
L 2053 4666 
Q 2838 4666 3239 4311 
Q 3641 3956 3641 3272 
Q 3641 2581 3239 2228 
Q 2838 1875 2053 1875 
L 1259 1875 
L 1259 0 
L 628 0 
L 628 4666 
z
" transform="scale(0.015625)"/>
      <path id="DejaVuSans-6b" d="M 581 4863 
L 1159 4863 
L 1159 1991 
L 2875 3500 
L 3609 3500 
L 1753 1863 
L 3688 0 
L 2938 0 
L 1159 1709 
L 1159 0 
L 581 0 
L 581 4863 
z
" transform="scale(0.015625)"/>
     </defs>
     <use xlink:href="#DejaVuSans-4d"/>
     <use xlink:href="#DejaVuSans-50" transform="translate(86.279297 0)"/>
     <use xlink:href="#DejaVuSans-50" transform="translate(146.582031 0)"/>
     <use xlink:href="#DejaVuSans-20" transform="translate(206.884766 0)"/>
     <use xlink:href="#DejaVuSans-67" transform="translate(238.671875 0)"/>
     <use xlink:href="#DejaVuSans-72" transform="translate(302.148438 0)"/>
     <use xlink:href="#DejaVuSans-69" transform="translate(343.261719 0)"/>
     <use xlink:href="#DejaVuSans-64" transform="translate(371.044922 0)"/>
     <use xlink:href="#DejaVuSans-2c" transform="translate(434.521484 0)"/>
     <use xlink:href="#DejaVuSans-20" transform="translate(466.308594 0)"/>
     <use xlink:href="#DejaVuSans-69" transform="translate(498.095703 0)"/>
     <use xlink:href="#DejaVuSans-6e" transform="translate(525.878906 0)"/>
     <use xlink:href="#DejaVuSans-65" transform="translate(589.257812 0)"/>
     <use xlink:href="#DejaVuSans-72" transform="translate(650.78125 0)"/>
     <use xlink:href="#DejaVuSans-74" transform="translate(691.894531 0)"/>
     <use xlink:href="#DejaVuSans-20" transform="translate(731.103516 0)"/>
     <use xlink:href="#DejaVuSans-61" transform="translate(762.890625 0)"/>
     <use xlink:href="#DejaVuSans-6e" transform="translate(824.169922 0)"/>
     <use xlink:href="#DejaVuSans-6f" transform="translate(887.548828 0)"/>
     <use xlink:href="#DejaVuSans-64" transform="translate(948.730469 0)"/>
     <use xlink:href="#DejaVuSans-65" transform="translate(1012.207031 0)"/>
     <use xlink:href="#DejaVuSans-20" transform="translate(1073.730469 0)"/>
     <use xlink:href="#DejaVuSans-6c" transform="translate(1105.517578 0)"/>
     <use xlink:href="#DejaVuSans-6f" transform="translate(1133.300781 0)"/>
     <use xlink:href="#DejaVuSans-63" transform="translate(1194.482422 0)"/>
     <use xlink:href="#DejaVuSans-6b" transform="translate(1249.462891 0)"/>
     <use xlink:href="#DejaVuSans-65" transform="translate(1303.748047 0)"/>
     <use xlink:href="#DejaVuSans-64" transform="translate(1365.271484 0)"/>
    </g>
   </g>
   <g id="line2d_53">
    <path d="M 267.187625 357.516312 
L 277.187625 357.516312 
L 287.187625 357.516312 
" style="fill: none; stroke: #b45309; stroke-width: 2.4; stroke-linecap: square"/>
   </g>
   <g id="text_31">
    <!-- SBTi grid, inert anode locked -->
    <g transform="translate(295.187625 361.016312) scale(0.1 -0.1)">
     <defs>
      <path id="DejaVuSans-53" d="M 3425 4513 
L 3425 3897 
Q 3066 4069 2747 4153 
Q 2428 4238 2131 4238 
Q 1616 4238 1336 4038 
Q 1056 3838 1056 3469 
Q 1056 3159 1242 3001 
Q 1428 2844 1947 2747 
L 2328 2669 
Q 3034 2534 3370 2195 
Q 3706 1856 3706 1288 
Q 3706 609 3251 259 
Q 2797 -91 1919 -91 
Q 1588 -91 1214 -16 
Q 841 59 441 206 
L 441 856 
Q 825 641 1194 531 
Q 1563 422 1919 422 
Q 2459 422 2753 634 
Q 3047 847 3047 1241 
Q 3047 1584 2836 1778 
Q 2625 1972 2144 2069 
L 1759 2144 
Q 1053 2284 737 2584 
Q 422 2884 422 3419 
Q 422 4038 858 4394 
Q 1294 4750 2059 4750 
Q 2388 4750 2728 4690 
Q 3069 4631 3425 4513 
z
" transform="scale(0.015625)"/>
      <path id="DejaVuSans-42" d="M 1259 2228 
L 1259 519 
L 2272 519 
Q 2781 519 3026 730 
Q 3272 941 3272 1375 
Q 3272 1813 3026 2020 
Q 2781 2228 2272 2228 
L 1259 2228 
z
M 1259 4147 
L 1259 2741 
L 2194 2741 
Q 2656 2741 2882 2914 
Q 3109 3088 3109 3444 
Q 3109 3797 2882 3972 
Q 2656 4147 2194 4147 
L 1259 4147 
z
M 628 4666 
L 2241 4666 
Q 2963 4666 3353 4366 
Q 3744 4066 3744 3513 
Q 3744 3084 3544 2831 
Q 3344 2578 2956 2516 
Q 3422 2416 3680 2098 
Q 3938 1781 3938 1306 
Q 3938 681 3513 340 
Q 3088 0 2303 0 
L 628 0 
L 628 4666 
z
" transform="scale(0.015625)"/>
      <path id="DejaVuSans-54" d="M -19 4666 
L 3928 4666 
L 3928 4134 
L 2272 4134 
L 2272 0 
L 1638 0 
L 1638 4134 
L -19 4134 
L -19 4666 
z
" transform="scale(0.015625)"/>
     </defs>
     <use xlink:href="#DejaVuSans-53"/>
     <use xlink:href="#DejaVuSans-42" transform="translate(63.476562 0)"/>
     <use xlink:href="#DejaVuSans-54" transform="translate(132.080078 0)"/>
     <use xlink:href="#DejaVuSans-69" transform="translate(190.039062 0)"/>
     <use xlink:href="#DejaVuSans-20" transform="translate(217.822266 0)"/>
     <use xlink:href="#DejaVuSans-67" transform="translate(249.609375 0)"/>
     <use xlink:href="#DejaVuSans-72" transform="translate(313.085938 0)"/>
     <use xlink:href="#DejaVuSans-69" transform="translate(354.199219 0)"/>
     <use xlink:href="#DejaVuSans-64" transform="translate(381.982422 0)"/>
     <use xlink:href="#DejaVuSans-2c" transform="translate(445.458984 0)"/>
     <use xlink:href="#DejaVuSans-20" transform="translate(477.246094 0)"/>
     <use xlink:href="#DejaVuSans-69" transform="translate(509.033203 0)"/>
     <use xlink:href="#DejaVuSans-6e" transform="translate(536.816406 0)"/>
     <use xlink:href="#DejaVuSans-65" transform="translate(600.195312 0)"/>
     <use xlink:href="#DejaVuSans-72" transform="translate(661.71875 0)"/>
     <use xlink:href="#DejaVuSans-74" transform="translate(702.832031 0)"/>
     <use xlink:href="#DejaVuSans-20" transform="translate(742.041016 0)"/>
     <use xlink:href="#DejaVuSans-61" transform="translate(773.828125 0)"/>
     <use xlink:href="#DejaVuSans-6e" transform="translate(835.107422 0)"/>
     <use xlink:href="#DejaVuSans-6f" transform="translate(898.486328 0)"/>
     <use xlink:href="#DejaVuSans-64" transform="translate(959.667969 0)"/>
     <use xlink:href="#DejaVuSans-65" transform="translate(1023.144531 0)"/>
     <use xlink:href="#DejaVuSans-20" transform="translate(1084.667969 0)"/>
     <use xlink:href="#DejaVuSans-6c" transform="translate(1116.455078 0)"/>
     <use xlink:href="#DejaVuSans-6f" transform="translate(1144.238281 0)"/>
     <use xlink:href="#DejaVuSans-63" transform="translate(1205.419922 0)"/>
     <use xlink:href="#DejaVuSans-6b" transform="translate(1260.400391 0)"/>
     <use xlink:href="#DejaVuSans-65" transform="translate(1314.685547 0)"/>
     <use xlink:href="#DejaVuSans-64" transform="translate(1376.208984 0)"/>
    </g>
   </g>
   <g id="line2d_54">
    <path d="M 459.157937 357.516312 
L 469.157937 357.516312 
L 479.157937 357.516312 
" style="fill: none; stroke: #003f88; stroke-width: 2.4; stroke-linecap: square"/>
   </g>
   <g id="text_32">
    <!-- MPP grid, inert anode unlocked -->
    <g transform="translate(487.157937 361.016312) scale(0.1 -0.1)">
     <use xlink:href="#DejaVuSans-4d"/>
     <use xlink:href="#DejaVuSans-50" transform="translate(86.279297 0)"/>
     <use xlink:href="#DejaVuSans-50" transform="translate(146.582031 0)"/>
     <use xlink:href="#DejaVuSans-20" transform="translate(206.884766 0)"/>
     <use xlink:href="#DejaVuSans-67" transform="translate(238.671875 0)"/>
     <use xlink:href="#DejaVuSans-72" transform="translate(302.148438 0)"/>
     <use xlink:href="#DejaVuSans-69" transform="translate(343.261719 0)"/>
     <use xlink:href="#DejaVuSans-64" transform="translate(371.044922 0)"/>
     <use xlink:href="#DejaVuSans-2c" transform="translate(434.521484 0)"/>
     <use xlink:href="#DejaVuSans-20" transform="translate(466.308594 0)"/>
     <use xlink:href="#DejaVuSans-69" transform="translate(498.095703 0)"/>
     <use xlink:href="#DejaVuSans-6e" transform="translate(525.878906 0)"/>
     <use xlink:href="#DejaVuSans-65" transform="translate(589.257812 0)"/>
     <use xlink:href="#DejaVuSans-72" transform="translate(650.78125 0)"/>
     <use xlink:href="#DejaVuSans-74" transform="translate(691.894531 0)"/>
     <use xlink:href="#DejaVuSans-20" transform="translate(731.103516 0)"/>
     <use xlink:href="#DejaVuSans-61" transform="translate(762.890625 0)"/>
     <use xlink:href="#DejaVuSans-6e" transform="translate(824.169922 0)"/>
     <use xlink:href="#DejaVuSans-6f" transform="translate(887.548828 0)"/>
     <use xlink:href="#DejaVuSans-64" transform="translate(948.730469 0)"/>
     <use xlink:href="#DejaVuSans-65" transform="translate(1012.207031 0)"/>
     <use xlink:href="#DejaVuSans-20" transform="translate(1073.730469 0)"/>
     <use xlink:href="#DejaVuSans-75" transform="translate(1105.517578 0)"/>
     <use xlink:href="#DejaVuSans-6e" transform="translate(1168.896484 0)"/>
     <use xlink:href="#DejaVuSans-6c" transform="translate(1232.275391 0)"/>
     <use xlink:href="#DejaVuSans-6f" transform="translate(1260.058594 0)"/>
     <use xlink:href="#DejaVuSans-63" transform="translate(1321.240234 0)"/>
     <use xlink:href="#DejaVuSans-6b" transform="translate(1376.220703 0)"/>
     <use xlink:href="#DejaVuSans-65" transform="translate(1430.505859 0)"/>
     <use xlink:href="#DejaVuSans-64" transform="translate(1492.029297 0)"/>
    </g>
   </g>
   <g id="line2d_55">
    <path d="M 662.707938 357.516312 
L 672.707938 357.516312 
L 682.707938 357.516312 
" style="fill: none; stroke: #386641; stroke-width: 2.4; stroke-linecap: square"/>
   </g>
   <g id="text_33">
    <!-- SBTi grid, inert anode unlocked -->
    <g transform="translate(690.707938 361.016312) scale(0.1 -0.1)">
     <use xlink:href="#DejaVuSans-53"/>
     <use xlink:href="#DejaVuSans-42" transform="translate(63.476562 0)"/>
     <use xlink:href="#DejaVuSans-54" transform="translate(132.080078 0)"/>
     <use xlink:href="#DejaVuSans-69" transform="translate(190.039062 0)"/>
     <use xlink:href="#DejaVuSans-20" transform="translate(217.822266 0)"/>
     <use xlink:href="#DejaVuSans-67" transform="translate(249.609375 0)"/>
     <use xlink:href="#DejaVuSans-72" transform="translate(313.085938 0)"/>
     <use xlink:href="#DejaVuSans-69" transform="translate(354.199219 0)"/>
     <use xlink:href="#DejaVuSans-64" transform="translate(381.982422 0)"/>
     <use xlink:href="#DejaVuSans-2c" transform="translate(445.458984 0)"/>
     <use xlink:href="#DejaVuSans-20" transform="translate(477.246094 0)"/>
     <use xlink:href="#DejaVuSans-69" transform="translate(509.033203 0)"/>
     <use xlink:href="#DejaVuSans-6e" transform="translate(536.816406 0)"/>
     <use xlink:href="#DejaVuSans-65" transform="translate(600.195312 0)"/>
     <use xlink:href="#DejaVuSans-72" transform="translate(661.71875 0)"/>
     <use xlink:href="#DejaVuSans-74" transform="translate(702.832031 0)"/>
     <use xlink:href="#DejaVuSans-20" transform="translate(742.041016 0)"/>
     <use xlink:href="#DejaVuSans-61" transform="translate(773.828125 0)"/>
     <use xlink:href="#DejaVuSans-6e" transform="translate(835.107422 0)"/>
     <use xlink:href="#DejaVuSans-6f" transform="translate(898.486328 0)"/>
     <use xlink:href="#DejaVuSans-64" transform="translate(959.667969 0)"/>
     <use xlink:href="#DejaVuSans-65" transform="translate(1023.144531 0)"/>
     <use xlink:href="#DejaVuSans-20" transform="translate(1084.667969 0)"/>
     <use xlink:href="#DejaVuSans-75" transform="translate(1116.455078 0)"/>
     <use xlink:href="#DejaVuSans-6e" transform="translate(1179.833984 0)"/>
     <use xlink:href="#DejaVuSans-6c" transform="translate(1243.212891 0)"/>
     <use xlink:href="#DejaVuSans-6f" transform="translate(1270.996094 0)"/>
     <use xlink:href="#DejaVuSans-63" transform="translate(1332.177734 0)"/>
     <use xlink:href="#DejaVuSans-6b" transform="translate(1387.158203 0)"/>
     <use xlink:href="#DejaVuSans-65" transform="translate(1441.443359 0)"/>
     <use xlink:href="#DejaVuSans-64" transform="translate(1502.966797 0)"/>
    </g>
   </g>
  </g>
  <g id="legend_4">
   <g id="line2d_56">
    <path d="M 315.072781 385.740312 
L 325.072781 385.740312 
L 335.072781 385.740312 
" style="fill: none; stroke-dasharray: 2,3.3; stroke-dashoffset: 0; stroke: #555555; stroke-width: 2"/>
   </g>
   <g id="text_34">
    <!-- No CCS -->
    <g transform="translate(343.072781 389.240312) scale(0.1 -0.1)">
     <defs>
      <path id="DejaVuSans-4e" d="M 628 4666 
L 1478 4666 
L 3547 763 
L 3547 4666 
L 4159 4666 
L 4159 0 
L 3309 0 
L 1241 3903 
L 1241 0 
L 628 0 
L 628 4666 
z
" transform="scale(0.015625)"/>
     </defs>
     <use xlink:href="#DejaVuSans-4e"/>
     <use xlink:href="#DejaVuSans-6f" transform="translate(74.804688 0)"/>
     <use xlink:href="#DejaVuSans-20" transform="translate(135.986328 0)"/>
     <use xlink:href="#DejaVuSans-43" transform="translate(167.773438 0)"/>
     <use xlink:href="#DejaVuSans-43" transform="translate(237.597656 0)"/>
     <use xlink:href="#DejaVuSans-53" transform="translate(307.421875 0)"/>
    </g>
   </g>
   <g id="line2d_57">
    <path d="M 400.164969 385.740312 
L 410.164969 385.740312 
L 420.164969 385.740312 
" style="fill: none; stroke-dasharray: 7.4,3.2; stroke-dashoffset: 0; stroke: #555555; stroke-width: 2"/>
   </g>
   <g id="text_35">
    <!-- Limited CCS -->
    <g transform="translate(428.164969 389.240312) scale(0.1 -0.1)">
     <defs>
      <path id="DejaVuSans-4c" d="M 628 4666 
L 1259 4666 
L 1259 531 
L 3531 531 
L 3531 0 
L 628 0 
L 628 4666 
z
" transform="scale(0.015625)"/>
     </defs>
     <use xlink:href="#DejaVuSans-4c"/>
     <use xlink:href="#DejaVuSans-69" transform="translate(55.712891 0)"/>
     <use xlink:href="#DejaVuSans-6d" transform="translate(83.496094 0)"/>
     <use xlink:href="#DejaVuSans-69" transform="translate(180.908203 0)"/>
     <use xlink:href="#DejaVuSans-74" transform="translate(208.691406 0)"/>
     <use xlink:href="#DejaVuSans-65" transform="translate(247.900391 0)"/>
     <use xlink:href="#DejaVuSans-64" transform="translate(309.423828 0)"/>
     <use xlink:href="#DejaVuSans-20" transform="translate(372.900391 0)"/>
     <use xlink:href="#DejaVuSans-43" transform="translate(404.6875 0)"/>
     <use xlink:href="#DejaVuSans-43" transform="translate(474.511719 0)"/>
     <use xlink:href="#DejaVuSans-53" transform="translate(544.335938 0)"/>
    </g>
   </g>
   <g id="line2d_58">
    <path d="M 508.947781 385.740312 
L 518.947781 385.740312 
L 528.947781 385.740312 
" style="fill: none; stroke: #555555; stroke-width: 2; stroke-linecap: square"/>
   </g>
   <g id="text_36">
    <!-- Unlimited CCS -->
    <g transform="translate(536.947781 389.240312) scale(0.1 -0.1)">
     <defs>
      <path id="DejaVuSans-55" d="M 556 4666 
L 1191 4666 
L 1191 1831 
Q 1191 1081 1462 751 
Q 1734 422 2344 422 
Q 2950 422 3222 751 
Q 3494 1081 3494 1831 
L 3494 4666 
L 4128 4666 
L 4128 1753 
Q 4128 841 3676 375 
Q 3225 -91 2344 -91 
Q 1459 -91 1007 375 
Q 556 841 556 1753 
L 556 4666 
z
" transform="scale(0.015625)"/>
     </defs>
     <use xlink:href="#DejaVuSans-55"/>
     <use xlink:href="#DejaVuSans-6e" transform="translate(73.193359 0)"/>
     <use xlink:href="#DejaVuSans-6c" transform="translate(136.572266 0)"/>
     <use xlink:href="#DejaVuSans-69" transform="translate(164.355469 0)"/>
     <use xlink:href="#DejaVuSans-6d" transform="translate(192.138672 0)"/>
     <use xlink:href="#DejaVuSans-69" transform="translate(289.550781 0)"/>
     <use xlink:href="#DejaVuSans-74" transform="translate(317.333984 0)"/>
     <use xlink:href="#DejaVuSans-65" transform="translate(356.542969 0)"/>
     <use xlink:href="#DejaVuSans-64" transform="translate(418.066406 0)"/>
     <use xlink:href="#DejaVuSans-20" transform="translate(481.542969 0)"/>
     <use xlink:href="#DejaVuSans-43" transform="translate(513.330078 0)"/>
     <use xlink:href="#DejaVuSans-43" transform="translate(583.154297 0)"/>
     <use xlink:href="#DejaVuSans-53" transform="translate(652.978516 0)"/>
    </g>
   </g>
  </g>
 </g>
 <defs>
  <clipPath id="p18e9f14d25">
   <rect x="41.570938" y="70.656" width="410.886" height="247.352"/>
  </clipPath>
  <clipPath id="p6799cb0558">
   <rect x="495.546937" y="70.656" width="410.886" height="247.352"/>
  </clipPath>
 </defs>
</svg>
